<?xml version="1.0" standalone="no"?>
<!DOCTYPE svg PUBLIC "-//W3C//DTD SVG 1.1//EN" "http://www.w3.org/Graphics/SVG/1.1/DTD/svg11.dtd" >
<svg xmlns="http://www.w3.org/2000/svg">
<metadata>
This is a custom SVG webfont generated by Font Squirrel.
Copyright   : Generated by Metamorphosis Professional 205
</metadata>
<defs>
<font id="DakotaRegular" horiz-adv-x="659" >
<font-face units-per-em="1000" ascent="800" descent="-200" />
<missing-glyph horiz-adv-x="494" />
<glyph unicode=" "  horiz-adv-x="494" />
<glyph unicode="&#x09;" horiz-adv-x="494" />
<glyph unicode="&#xa0;" horiz-adv-x="494" />
<glyph unicode="!" horiz-adv-x="571" d="M318 362q4 20 22 57t22 53l77 253q11 52 28.5 74t51.5 22q18 0 52 -8q-31 -56 -66 -141q-29 -69 -55 -145q-8 -23 -16 -128.5t-86 -105.5q-13 0 -30 3q0 2 -0.5 13.5t-0.5 23.5q0 25 1 29zM296 54q-9 -15 -31 -25t-44 -10q-36 0 -44.5 20.5t-8.5 34.5q0 23 20.5 33 t51.5 10q18 0 36.5 -2.5t30.5 -5.5q-2 -10 -3 -20q-5 -30 -8 -35z" />
<glyph unicode="&#x22;" horiz-adv-x="538" d="M263 516l-11 11q-3 11 12 48l21 51q14 40 30 68q29 50 57 50q9 0 17.5 -4.5t17 -15.5t8.5 -25q0 -18 -15 -41l-27 -43l-32 -75q-22 -35 -78 -35v11zM549 747q13 -6 18 -15.5t5 -22.5q0 -12 -4 -25l-7 -22q-3 -9 -39 -82q-14 -29 -17 -53q-34 0 -50 15.5t-16 40.5 q0 42 34 99q31 53 65 76z" />
<glyph unicode="#" horiz-adv-x="725" d="M450 604h22q10 -2 29 -2q9 0 15 2q22 9 52 65.5t36 88.5q2 18 5 35t16.5 30.5t26.5 13.5q14 0 25.5 -14t13.5 -25.5t2 -21.5q0 -29 -23 -82q-30 -68 -33 -79q30 -7 50 -16.5t38 -27.5q-10 -4 -46 -13q-57 -14 -75 -31q-22 -21 -22 -37q0 -12 13 -22q9 -7 33 -19t26 -20 t5 -23l-95 -26q-48 -19 -57.5 -66t-23.5 -57q-7 -5 -55 -16q0 32 8 60.5t25 71.5q-16 4 -34 8t-29 4q-21 0 -34 -9.5t-24 -35.5l-12 -33q-5 -8 -21 -10t-20 -2h-6q-15 0 -20 9.5t-10 14.5t-82.5 12.5t-77.5 38.5q0 11 7.5 25t20.5 19.5t32 5.5q15 0 45 -3.5t38 -3.5 q17 0 29 4q22 8 36 31q7 11 19 46q-19 7 -42 10t-39 3q-11 0 -38 -1t-46 -1q20 57 109 66t100 77q4 30 9 61q8 28 33 28q8 0 22 -2.5t22.5 -13t8.5 -27.5q0 -13 -8 -40t-10 -39zM450 428q32 6 50.5 29t18.5 50q0 56 -62 56q-12 0 -33 -4.5t-35.5 -26t-14.5 -47.5 q0 -25 15 -42t43 -17q6 0 18 2z" />
<glyph unicode="$" horiz-adv-x="912" d="M208 131l10 6q4 3 7 6q-10 -1 -10 2t4 8l166 232q85 125 153 241l52 96q45 72 79 72q6 0 12 -3q24 -10 24 -30q0 -19 -23 -49l-34 -42l-59 -75q-31 -42 -40 -79q52 6 68 11q38 12 64 44l96 123q62 67 135 75q-13 -42 -53 -91q-61 -74 -68 -85q51 -36 51 -72 q0 -42 -66.5 -48.5t-94.5 -16.5q-46 -16 -46 -45q0 -11 5.5 -22.5t18.5 -26.5q17 -20 25.5 -43t8.5 -47q0 -52 -34.5 -100.5t-87.5 -73.5l-275 -130q-9 31 -21.5 45.5t-44.5 29.5q-33 -59 -33 -60q-26 -37 -55 -37q-18 0 -25.5 7.5t-7.5 19.5q0 9 5 25l6 23q2 7 12 20t10 21 q0 18 -37 80q-18 30 -18 55q0 82 66 110q-8 -46 -8 -74q0 -58 41 -124zM615 494h-11q-10 4 -22 -1t-22 -10q-28 -11 -47 -34.5t-30 -53.5q11 -3 24.5 -9.5t21.5 -6.5q10 0 20 5q24 11 47 44q18 26 30 55zM461 373q-16 0 -26 -15t-18 -29q-53 -71 -59 -78q-19 -23 -40 -43 q-30 -23 -46 -37q-31 -27 -31 -51q2 -23 11.5 -32.5t23.5 -9.5q19 0 41.5 14t33.5 28l80 107q47 65 74 113l-12 14q-22 19 -32 19zM560 307q-41 -20 -92 -100l-73 -120q7 -1 19 -1q37 0 82 26l86 52q29 16 42.5 33.5t13.5 37.5q0 21 -14.5 44t-41.5 50z" />
<glyph unicode="%" horiz-adv-x="648" d="M494 681h-22q-16 4 -56 4q-27 0 -32 -4q-15 -10 -26 -49t-18 -50q-17 -25 -45.5 -38.5t-59.5 -13.5q-56 0 -82 41q-15 26 -15 51q0 73 101 140q93 62 167 62q39 0 64.5 -39.5t57.5 -39.5q5 0 20.5 2t32.5 5t30 3q21 0 31.5 -6t10.5 -22q0 -17 -16 -46q-21 -37 -58 -84 q-102 -128 -107 -136q-31 -46 -81 -109q-79 -100 -85 -107q-48 -64 -76 -114q-16 -29 -23 -43q-10 -19 -19.5 -41t-18 -28.5t-22.5 -6.5q-10 0 -30.5 4t-29.5 5q0 59 57 128l97 114q27 39 100 128q68 81 102 135q51 80 62 144zM285 714q-32 -19 -54.5 -43.5t-33.5 -55.5 q33 -16 60 -16q66 0 66 72q0 32 -16 65q-7 -7 -13 -14q-2 -2 -9 -8zM516 384q10 2 16 2q25 0 43 -10.5t18 -35.5q0 -17 -16.5 -34.5t-16.5 -31.5q-1 -9 10.5 -36.5t11.5 -40.5q0 -60 -37 -82q-29 -17 -95 -17q-44 0 -65 19.5t-21 50.5q0 26 15 59t38 58q29 38 46 58 q31 37 53 41zM417 175q8 -19 21.5 -28.5t30.5 -9.5q30 0 56.5 23.5t26.5 52.5q0 14 -8.5 27t-27.5 23q-7 4 -17 4q-27 0 -55.5 -27.5t-28.5 -53.5v-6q2 -4 2 -5z" />
<glyph unicode="&#x26;" horiz-adv-x="769" d="M714 10h-11q-10 -4 -25 -8.5t-27 -4.5q-8 0 -14 3q-11 6 -22.5 32t-21.5 33q-14 10 -33 10q-25 0 -54 -15l-56 -28q-60 -26 -90 -36q-58 -20 -99 -20q-31 0 -58 10.5t-50 34.5q-31 34 -46.5 74.5t-15.5 84.5q0 89 55 179q51 84 128 135q34 15 42 20q13 8 13 46 q0 136 132 187q33 12 63 12q24 0 41 -7.5t28 -26.5q15 -29 15 -56q0 -33 -19 -65q-23 -40 -84 -88l-35 -28q-28 -25 -28 -49q0 -12 8 -33q19 -46 66 -98q66 -73 77 -89q56 44 72 54q41 25 81 25l23 -2q-5 -47 -42 -84q-24 -24 -79 -59q11 -22 17.5 -30.5t26.5 -24.5 q16 -12 22 -30q1 -3 11 -47zM439 549q8 -3 15 -3q33 0 60.5 39t27.5 79q0 22 -12 36t-36 14q-31 0 -64.5 -36.5t-33.5 -73.5q0 -19 10 -33t33 -22zM329 406h-11l-11 -11q-34 -12 -68 -49t-41 -66.5t-7 -52.5q0 -65 37.5 -109.5t99.5 -44.5q16 0 34 3q50 10 81 32 q38 27 38 64q0 16 -9 36q-16 35 -83 130q-33 47 -49 79z" />
<glyph unicode="'" horiz-adv-x="164" d="M175 813q4 24 19 38.5t32 14.5q16 0 26.5 -12.5t10.5 -40.5q0 -32 -18 -88q-22 -69 -26 -88q-8 -40 -26 -49q-12 -6 -62 -6q-1 6 -1 18q0 38 18 105q24 90 27 108z" />
<glyph unicode="(" horiz-adv-x="505" d="M296 10h-11l-11 11q-12 -2 -24 -3q-8 0 -22.5 3.5t-37 13.5t-37.5 19q-73 46 -111.5 131t-38.5 179q0 41 7 75q17 82 77 172q44 65 121 147q35 36 53 53q30 29 57 46l31 20q24 15 37 15q21 0 53 -35q-141 -89 -234 -190q-115 -125 -151 -261q-6 -26 -6 -49q0 -59 41 -124 q16 -26 86 -113h11q2 -8 19 -19q20 -11 25 -14q9 -9 19 -17q24 -15 25 -16h11q5 -6 13 -18.5t9 -14.5z" />
<glyph unicode=")" horiz-adv-x="406" d="M109 10q-3 12 7 27.5t37 38.5q115 104 147.5 161.5t32.5 121.5v28q-3 13 -4 19q-14 83 -49.5 171.5t-82.5 169.5q-49 60 -76 103q-30 47 -30 72q0 30 40 34q32 0 70 -80q14 -32 29 -63l64 -118q32 -61 46 -113q3 -13 38 -107q26 -71 26 -114q0 -27 -9 -54 q-33 -93 -117 -182q-72 -76 -169 -135v20z" />
<glyph unicode="*" horiz-adv-x="934" d="M516 615q12 18 39 82q40 93 93 105q0 -32 -10 -63q-25 -78 -25 -93q0 -6 2 -20q33 21 91 76q93 89 162 89q-7 -57 -94 -117l-137 -92q7 -1 14 -1h15q32 0 158 23q60 11 99 11q0 -24 -2 -34q-5 -16 -9 -32q-39 9 -77 9q-63 0 -133 -23q-22 -7 -131 -52q0 -1 73 -137 q29 -54 29 -79q0 -9 -3 -15q-7 -15 -18.5 -23.5t-24.5 -8.5q-31 0 -45 32l-35 83q-21 48 -42 82q-60 -48 -91 -135l-52 -151q-12 5 -21 7.5t-23 3.5q0 38 18 88q39 109 39 139q0 6 -1 14t-1 12l-85 -51q-50 -34 -68.5 -69t-39.5 -55t-46 -20q-24 0 -47 19q48 54 134 121 l86 66q-4 1 -15.5 2t-34.5 1h-27q-68 0 -96 7q-47 12 -47 45q0 19 7.5 27.5t20.5 8.5q15 0 35 -7q51 -18 58 -18q52 0 108 12t112 32q-8 9 -98 69q-67 45 -67 74q0 27 10.5 39.5t28.5 12.5t41 -12t41 -29q34 -32 53 -48q30 -25 57 -40l6 8q3 6 16 25z" />
<glyph unicode="+" horiz-adv-x="901" d="M406 32q-4 12 -4 27q0 22 9 47l17 50q9 25 13 41q9 32 9 49q0 28 -21 38.5t-50 10.5q-35 0 -110 -20.5t-103 -20.5q-24 0 -40 6.5t-28 24.5q-7 11 -7 23q0 21 19.5 37.5t42.5 16.5q10 0 17 -5q24 -16 32.5 -17.5t17.5 -1.5q7 0 22 1t21 1q22 0 46 -1l49 -2q54 0 82 14 q38 19 43 66q0 78 5 120q9 79 57 79q10 0 15 -1q35 -7 35 -44q0 -24 -17 -72.5t-18 -56t-1 -11.5v-6q0 -33 23 -46q18 -10 55 -10q15 0 51 2t37 2q23 0 60 6t50 6q22 0 38.5 -12t27.5 -44q-32 -13 -44 -17q-21 -8 -40 -8q-11 0 -26 3q-38 6 -79.5 8.5t-96.5 2.5 q-45 0 -66 -32q-16 -25 -22 -78q-2 -20 -4.5 -77t-7 -80.5t-20 -31.5t-43.5 -8h-27q-11 0 -19 -1v22z" />
<glyph unicode="," horiz-adv-x="296" d="M285 76q3 -15 3 -33q0 -83 -53 -170q-58 -95 -127 -95q-10 0 -21 3l121 198q1 6 1 16q0 29 -32 65t-35 60q-3 28 21 45q13 10 45 21q12 9 44 -44q29 -48 33 -66z" />
<glyph unicode="-" horiz-adv-x="648" d="M131 241l11 11q0 40 22 55q6 4 88 7t88 4l187 22l75 10q22 0 34.5 -9t12.5 -32q0 -8 -1 -13q-4 -28 -12.5 -38.5t-24.5 -10.5q-11 0 -58 18q-23 9 -37 9q-48 0 -201 -35q-70 -16 -117 -16q-22 0 -33 1t-34 6v11z" />
<glyph unicode="." horiz-adv-x="318" d="M307 32q-8 -14 -25.5 -15t-29.5 -7q-7 -3 -21.5 -14.5t-20.5 -11.5t-11.5 5.5t-13.5 24.5t-8 33q0 23 17.5 32.5t47.5 9.5q17 0 38 -3.5t38 -9.5q-1 -4 -1 -7q-6 -31 -10 -37z" />
<glyph unicode="/" horiz-adv-x="758" d="M758 758q3 -9 3 -16q0 -25 -27 -57l-42 -48l-86 -122l-90 -120q-99 -132 -120 -158q-66 -83 -133 -150q-45 -45 -76 -87q-38 -51 -55.5 -97.5t-36.5 -58.5q-15 -9 -74 -19q-4 19 -4 38q0 33 19 64q12 19 51 63l89 95q56 60 87 102l114 143q74 91 114 145q61 81 102 151 q31 68 48 100q31 58 73 76q5 4 24 -17q16 -18 20 -27z" />
<glyph unicode="0" horiz-adv-x="780" d="M538 527q89 0 160 -47q82 -55 82 -140q0 -122 -65 -245q-71 -135 -177 -182q-79 -36 -124 -52q-82 -29 -140 -29q-41 0 -74 14t-57.5 44.5t-35.5 64.5t-11 70q0 111 102 248q81 108 186 188q47 36 85 51t69 15zM197 109q-7 -29 -7 -57q0 -63 35.5 -95t96.5 -32 q49 0 106 21q85 32 171 145q91 120 91 217q0 51 -26 83q-29 36 -93 48q-18 3 -36 3q-109 0 -214 -111q-97 -103 -124 -222z" />
<glyph unicode="1" horiz-adv-x="197" d="M109 208v99q0 26 5.5 72t5.5 60q0 7 -7.5 20t-3.5 24q3 6 17 16t16 17q2 5 23 -2q7 -2 21 -9q6 -6 8.5 -16t2.5 -39q0 -45 -10 -188q-5 -72 -5 -113q0 -82 15 -149l-30 -7q-26 -6 -44 -6q-15 0 -36 3q0 31 15 135q7 49 7 83z" />
<glyph unicode="2" horiz-adv-x="615" d="M274 21q-22 -3 -43 -13q-61 -28 -68 -30t-18 -2q-25 0 -40 9q-20 12 -20 34q0 3 3.5 17t35.5 26q7 2 55 14.5t135 62.5l84 48q43 25 92 75q59 61 59 100q0 40 -22 56.5t-58 16.5q-12 0 -25 -1.5t-27 -5.5q-54 -27 -93.5 -44t-61.5 -17q-27 0 -27 28q0 12 7.5 36.5 t65.5 42.5q10 3 87 20q20 5 44.5 8.5t45.5 3.5q41 0 72.5 -15.5t46.5 -51.5q12 -30 12 -60q0 -81 -84 -162q-65 -62 -159 -108q55 -34 76 -53q38 -34 45 -77q-78 24 -118 34.5t-69 10.5q-16 0 -33 -3z" />
<glyph unicode="3" horiz-adv-x="527" d="M230 494q59 -5 100 -11.5t98 -21.5q35 -8 64.5 -31.5t34.5 -56.5q1 -4 1 -12q0 -36 -38 -73l-62 -58q41 -25 60.5 -55.5t19.5 -63.5q0 -54 -47.5 -95.5t-120.5 -47.5q-6 -1 -13 -1h-11q-25 0 -66.5 5t-71.5 8t-56.5 21t-26.5 39q0 31 58 47q7 -30 37 -44t74 -14 q33 0 64.5 7t55.5 18q45 23 45 53q0 26 -32 47t-68 21q-9 0 -21.5 -1.5t-27.5 -2.5q-16 0 -23.5 3.5t-15.5 11.5q-15 16 -15 33q0 15 10.5 26.5t26.5 17.5q71 23 102 35q55 21 85 64q-32 29 -62.5 39t-67.5 10q-20 0 -60 -2.5t-52 -2.5q-31 0 -44.5 8.5t-13.5 24.5 q0 18 20 38t49 28z" />
<glyph unicode="4" horiz-adv-x="626" d="M494 175q26 81 30 97q14 53 14 101v24q0 53 5 84q9 52 31 52q13 0 30 -17q10 -10 15 -27t5 -35q0 -33 -15 -88l-38 -136q-7 -50 -29 -116q-33 -100 -37 -114q-10 -51 -19 -102q-16 -53 -69 -62q0 31 15 102q7 33 7 62q1 7 1 14v10q0 21 -9.5 33t-35.5 19 q-35 10 -89.5 21.5t-75.5 11.5q-10 0 -45 -10q-17 -5 -29 -5q-13 0 -25 4q-38 16 -38 38q0 18 36 51q31 28 35 32q63 61 110 132l35 53q28 38 47 38q18 0 28 -36q1 -3 1 -9q0 -20 -20 -41l-36 -38q-51 -61 -65 -80q-8 -11 -34 -52q56 -24 90 -37q64 -25 102 -25q56 0 72 51z " />
<glyph unicode="5" d="M615 538l11 -11q10 -3 21 -12.5t12 -20.5q5 -40 -65 -75q-10 -5 -56 -24q-111 -32 -158 -50q-81 -31 -117 -104q22 -5 156.5 -8.5t173.5 -90.5q12 -29 12 -54q0 -72 -81 -126q-74 -49 -151 -49q-56 0 -118 15l-69 18l-56 12q-43 14 -43 63q41 0 156 -33q56 -16 94 -16 q18 0 28 1t30 6q49 13 90 45q47 37 47 74q0 17 -11.5 34t-37.5 32q-19 11 -35 15t-36 4q-22 0 -54 -6q-74 -14 -96 -14q-14 0 -21 1q-42 6 -59.5 17.5t-17.5 30.5q0 15 15 47q12 24 18 37q29 61 41 74q23 25 69 25q92 0 167 33q85 37 130 110h11z" />
<glyph unicode="6" d="M461 527q22 0 33 -13t11 -33q0 -22 -11 -42q-22 -39 -131 -135q-55 -48 -78 -85l-110 -154q-5 -17 -5 -32q0 -46 33.5 -83.5t80.5 -37.5q8 0 24 2t25 16q6 10 6 36q0 22 1 34q6 52 48 102t95 73q22 9 45 15t45 6q37 0 59.5 -17.5t26.5 -58.5q1 -7 1 -21q0 -89 -71 -147 q-60 -49 -161 -72q-27 -6 -66.5 -12t-72.5 -6q-47 0 -83 9t-64.5 31.5t-41.5 52t-13 65.5q0 53 29 111.5t70 98.5q61 58 106 109q53 60 92 122q21 33 30 43q22 23 47 23zM439 -54q24 -3 55 14.5t55 39.5q17 16 31.5 40.5t14.5 44.5q0 14 -8 23t-27 12q-41 7 -99 -47t-58 -94 q0 -14 8.5 -22.5t27.5 -10.5z" />
<glyph unicode="7" horiz-adv-x="835" d="M175 351q-37 0 -57 14.5t-20 34.5q0 42 61 42q12 0 28 -3.5t40.5 -5.5t47.5 -2q68 0 172 20l102 21l116 55q45 21 72 21q19 0 32 -10q21 -17 21 -41q0 -26 -26 -66l-39 -58l-59 -97q-37 -60 -51 -101q16 -2 48 4q87 15 105 15q29 0 46.5 -9t19.5 -23t2 -22 q0 -18 -9.5 -25.5t-27.5 -7.5q-13 0 -33 4q-46 9 -52 9q-126 0 -173 -103q-17 -37 -47 -214l-55 10q-32 8 -43.5 22.5t-11.5 23.5q0 7 4 12l18 20q31 52 48.5 98t17.5 87l-101 -34q-39 -13 -63 -13q-23 0 -38.5 7.5t-28 28t-12.5 36.5q0 19 19.5 26t52.5 7q22 0 39 -1l33 -2 q10 0 21 -0.5t23 -0.5q43 0 68 9q36 13 53 47q42 81 65 130q34 72 56 134q-70 0 -156 -24l-173 -50q-88 -25 -155 -25z" />
<glyph unicode="8" horiz-adv-x="637" d="M131 461q39 41 102 56q46 11 123 11q21 0 41.5 -0.5t41.5 -0.5q48 0 86 -16q49 -20 57 -61q2 -12 2 -16q0 -24 -18.5 -32t-48.5 -8h-18q-8 0 -16 1q-4 41 -40.5 61.5t-89.5 20.5q-44 0 -86.5 -13t-70 -36.5t-27.5 -42.5q0 -17 19 -31q13 -10 75 -36q25 -11 75 -55 q41 -37 74 -37q14 0 31.5 5t96.5 45q62 31 97 31q-17 -30 -51 -55q-5 -4 -70 -44q-31 -20 -44 -33.5t-13 -26.5q0 -9 8 -30l17 -44q9 -24 15.5 -51t6.5 -54q0 -36 -14 -60q-17 -29 -53 -40q-68 -22 -140 -22q-39 0 -72 7.5t-61 24.5t-40.5 34.5t-12.5 37.5q0 52 92 130 l124 105q-8 6 -105 61q-130 74 -130 138q0 36 37 76zM208 -10q-11 -18 -11 -36q0 -25 25 -38.5t63 -13.5q35 0 75 8t57 25q21 20 21 48q0 30 -24 73q-3 5 -41 64q-51 -24 -90 -53q-51 -38 -75 -77z" />
<glyph unicode="9" horiz-adv-x="549" d="M494 527q31 -17 46 -44.5t15 -62.5q0 -38 -14 -81.5t-58 -130.5q-9 -17 -70 -95q-46 -58 -50.5 -99.5t-16 -79.5t-28.5 -76q-8 -17 -19.5 -24.5t-26.5 -7.5q-10 0 -31 4t-33 6q0 39 22 78l44 76l39 81l38 82q-10 0 -41.5 -1t-50.5 -1q-97 0 -135 23q-32 19 -32 57 q0 28 17 65q45 92 141 163q91 67 189 90l24 -8q25 -11 31 -14zM197 208q17 -13 51 -13q37 0 75.5 15.5t60.5 41.5q12 14 19 27l14 28l37 42q13 17 19 36.5t6 36.5q0 21 -12.5 31.5t-33.5 10.5q-19 0 -42.5 -7t-50.5 -18q-50 -22 -104 -73q-65 -61 -65 -109q0 -30 26 -49z " />
<glyph unicode=":" horiz-adv-x="329" d="M208 186q-24 0 -34.5 10.5t-10.5 28.5q0 41 34 60q16 10 30 10q20 0 31.5 -15t11.5 -37q0 -24 -15.5 -40.5t-46.5 -16.5zM230 472l-11 11l11 11v11q7 22 25.5 37.5t38.5 15.5q21 0 34.5 -20t13.5 -34q0 -21 -29 -32t-83 -11v11z" />
<glyph unicode=";" horiz-adv-x="461" d="M87 -274q-2 7 17 21l16 11q8 6 26 21q11 9 40 35l117 100q66 66 66 129q0 14 -1 21.5t-4.5 18.5t-23.5 39q-8 11 -8 20q0 10 8 22q16 24 37 24q23 0 45 -26.5t27.5 -52t5.5 -45.5q0 -114 -130 -222q-110 -91 -238 -127v11zM318 505q19 27 38 27t34 -29q12 -24 16 -53 q-45 -11 -88 -11q-2 9 -3 19.5t-1 23.5q0 18 4 23z" />
<glyph unicode="&#x3c;" horiz-adv-x="813" d="M87 285q0 16 19 32.5t36 22.5q8 2 19 0.5t12 -1.5q8 0 15.5 2t22 15.5t19.5 16.5q60 33 129 79l122 85l123 89q14 10 56 57q35 39 54 42q23 4 33.5 -5.5t10.5 -27.5q0 -15 -6 -30t-16 -25q-60 -60 -145 -121q-50 -36 -158.5 -105t-158.5 -104q26 -19 53 -28q13 -4 57 -16 q22 -6 38 -13l61 -31q45 -18 61 -27q38 -20 49 -39q7 -12 9.5 -25.5t2.5 -34.5q0 -10 -0.5 -19.5t-0.5 -19.5q-49 0 -90 36q-118 103 -130 107q-41 14 -46 16q-53 17 -85 17h-12q-20 0 -48 -17q-21 -13 -29 -16q-3 16 -5 24.5t-17 19.5q-8 6 -24 12t-31 10v22z" />
<glyph unicode="=" horiz-adv-x="593" d="M87 230q-3 11 -3 20q0 27 20 42t49 15q12 0 28 -6q40 -15 51.5 -16t22.5 -1.5t19 -0.5q31 0 77 4q103 9 121 9q41 0 53 -4q28 -9 24 -40q-3 -20 -18 -27t-39 -7h-16q-8 0 -15 1q-72 0 -203 -5.5t-171 -5.5v22zM582 406v-11h-11q-10 -8 -16.5 -9t-24 -3.5t-40.5 -3.5 t-55 -1q-52 0 -109.5 2t-95.5 4q-19 -1 -30 -1q-17 0 -28.5 2.5t-18.5 9.5q-10 11 -10 24q0 14 12 31q5 7 20 22q12 11 29 11q13 0 51 -14q19 -7 30 -8h41q22 0 44 1q102 0 148 -11t75 -34z" />
<glyph unicode="&#x3e;" horiz-adv-x="879" d="M637 593q93 -38 147.5 -52t94.5 -14q0 -61 -18 -96q-23 -44 -81 -69q-39 -16 -83 -45q-25 -17 -126 -98q-21 -17 -91.5 -63t-102.5 -72q-53 -42 -81 -84q-16 -24 -42 -24q-21 0 -46 14q-13 7 -18 19t-5 28v18q0 10 1 21q78 9 168 67q66 42 157 125l137 127q27 25 37 37 q18 22 18 38q0 20 -22 35q-29 21 -95 51q-42 19 -59 26q-103 46 -136 71q-41 32 -41 62q0 16 10.5 32t34.5 33z" />
<glyph unicode="?" d="M571 659q-7 10 -20.5 14t-32.5 4q-38 0 -99 -17l-79 -23l-40 -11q-23 -6 -38 -6q-28 0 -28 23q0 12 7 27q11 25 83 40q32 7 104 15l144 16q25 0 40 -3.5t25 -12.5q25 -24 25 -60q0 -18 -7 -40.5t-18 -42.5q-36 -68 -145 -140l-174 -113q-23 -18 -35 -65t-53 -56 q-9 26 -15 48.5t-6 38.5q0 29 19 51t68 49q81 45 111 64q65 42 105 82q50 50 70 107zM197 54q7 15 25 25t37 10q17 0 30 -8.5t17 -22t4 -20.5q0 -19 -17.5 -26.5t-45.5 -7.5q-17 0 -30 1.5t-31 4.5q1 6 2 13q5 21 9 31z" />
<glyph unicode="@" horiz-adv-x="1010" d="M1000 131v-11l-11 -11q-5 -6 -28.5 -17t-37.5 -16l-132 -44q-36 -9 -138 -40q-151 -46 -236 -46q-117 0 -195 34q-101 44 -124 140q-6 26 -6 49q0 61 31 127q24 51 75 117q27 35 87 103q75 84 189 133t234 49q86 0 160 -28q55 -21 88 -74t33 -113q0 -80 -74 -147 q-59 -54 -146 -84q-29 -10 -93.5 -23t-92 -20t-40 -8.5t-32.5 -1.5q-47 0 -73 17q-32 21 -32 69q0 72 92 140q84 62 161 69q6 1 18 1q58 0 78 -40q14 -28 14 -93v-33q70 16 110 66.5t40 110.5q0 53 -33 90q-37 42 -106 52q-28 4 -63 4q-145 0 -280 -86q-129 -82 -207 -215 q-44 -73 -44 -152q0 -86 54.5 -143.5t152.5 -57.5l35 2q138 15 293 54q135 34 289 88zM505 384q-25 -15 -38.5 -37t-13.5 -43q0 -25 15.5 -40.5t42.5 -15.5q14 0 27 4q26 9 43 29q35 43 64 47.5t44.5 22t15.5 37.5t-14.5 35.5t-39.5 15.5q-33 0 -78 -19q-35 -15 -68 -36z " />
<glyph unicode="A" horiz-adv-x="846" d="M131 230q-3 10 4 30q3 9 7 14q11 13 21.5 17.5t24.5 4.5h20q53 0 94 93.5t82 93.5q16 0 27 -4q9 -5 19 -9q7 0 31 24l88 91l80 85l85 88l90 96q55 51 109 51q17 0 32 -4q-16 -93 -58 -195q-26 -62 -87 -185q-65 -130 -86 -181q-32 -76 -43 -110q-23 -70 -23 -121 q0 -34 22 -63q65 -86 66 -89q-16 -2 -24 -2q-49 0 -85.5 33.5t-44.5 87.5q-1 5 -1 17q0 22 6 48q16 69 16 80q0 25 -14.5 39t-50.5 14q-21 0 -44 1l-46 2q-40 0 -67.5 -4.5t-51.5 -20.5q-42 -26 -80 -86q-23 -36 -52 -101q-17 -38 -41 -48q-17 -7 -69 -7q6 48 62 120 q37 48 48 67l-66 22v11zM813 791q-31 -16 -83 -69l-71 -74l-97 -96q-58 -59 -95 -101q-48 -55 -83 -111q24 -5 60 -15q75 -20 110 -20q39 0 63 14q29 17 42 54q18 50 70 141q59 103 79 147q38 85 38 152zM395 461q-19 -1 -19 -16q0 -7 4 -17t4 -11l19 17q5 5 5 10 q-2 12 -2 28zM362 417v-11l11 -11l11 11v11l-11 11z" />
<glyph unicode="B" horiz-adv-x="725" d="M274 582v22q0 28 30 54.5t58 33.5l114 29q60 15 106 15q78 0 111 -13q54 -21 54 -86q0 -89 -128 -183l-114 -81q17 -7 57 -17q76 -19 97 -27q65 -25 65 -90q0 -40 -32 -75q-61 -64 -174 -110q-98 -40 -200 -54q-25 -3 -53 -7t-48 -4q-36 0 -63.5 11t-40 25.5t-12.5 32.5 q0 16 8 40q32 -19 66.5 -37.5t69.5 -18.5q12 0 18 1q69 8 146 36q61 22 140 63q32 17 60 41q39 33 39 54q0 29 -48 50q-36 15 -66 19t-51 4q-96 0 -156 -56q-56 -52 -86 -156q-10 2 -29.5 5.5t-36.5 5.5q0 70 71 188q48 80 61 109q10 22 45 79q55 89 55 137q0 10 -1 15 q-20 -7 -59.5 -32.5t-61.5 -33.5zM417 406q21 2 44 16l44 28q44 23 97 71q67 61 67 103q0 29 -32 46q-26 13 -57 13q-28 0 -62 -11q-20 -6 -57 -24q11 -23 11 -49q0 -28 -52 -130q-25 -49 -25 -85z" />
<glyph unicode="C" horiz-adv-x="824" d="M780 54q-24 -6 -69 -20q-21 -7 -41 -13q-54 -13 -125 -23.5t-137 -10.5q-136 0 -214 45q-96 56 -96 176q0 56 26 116q22 51 63 108q23 32 76 95q104 123 195 176q78 45 152 45q18 0 27 -1q66 -8 93 -44q23 -31 23 -86q0 -32 -6 -70.5t-11 -74.5q-42 7 -57 17t-15 27 q0 5 11 53q6 26 6 46q-4 35 -22.5 49.5t-49.5 14.5q-17 0 -27.5 -1.5t-32.5 -7.5q-114 -33 -229 -162q-110 -123 -145 -245q-10 -33 -10 -63q0 -85 80 -131q70 -40 174 -40q27 0 53 3l209 22q16 2 37 11q49 20 62 22.5t21.5 4.5t10.5 2q3 0 6 -11t6 -18z" />
<glyph unicode="D" horiz-adv-x="791" d="M-10 54q2 -17 5 -31.5t29.5 -23.5t65.5 -9q49 0 109 14q31 7 97 28q174 56 275 126q82 57 121 127l23 42q18 34 18 63q0 19 -8 49q-14 47 -62 94q-36 35 -92 71q-95 59 -168 90q-100 42 -184 42q-64 0 -97.5 9t-33.5 27q0 7 4.5 13.5t18 17.5t43.5 11q32 0 82 -14l71 -20 q176 -35 317 -136q166 -119 166 -261q0 -43 -15.5 -86.5t-49.5 -88.5q-38 -49 -112 -95q-59 -36 -141 -69.5t-122 -47.5q-73 -26 -134.5 -39.5t-127.5 -13.5q-27 0 -60 3.5t-62 26.5t-29 50q0 16 13 30t40 23v-22zM516 582v-22q5 -33 -48 -116l-40 -60l-57 -77 q-37 -51 -53 -88l-22 -61q-16 -37 -39 -37q-13 0 -28 11t-15 28q0 21 27 55l77 92l78 163q54 100 109 123z" />
<glyph unicode="E" d="M626 10q-15 -4 -34 -4q-16 0 -44.5 2.5t-34.5 2.5q-13 0 -32 -2t-51 -4t-62 -2q-57 0 -105.5 7.5t-82.5 22.5q-43 19 -71 54q-21 27 -21 53t23 62l40 60q20 29 28 43q16 26 18 49l6 47q5 15 38 27q51 19 91 72q35 46 51 101.5t67 86.5q60 37 187 48q13 1 22.5 1.5 t16.5 0.5q65 0 162 -23l96 -23q-28 -13 -60 -18.5t-69 -5.5q-22 0 -68 3t-69 3h-23q-9 0 -30 -4q-78 -11 -144 -87q-27 -31 -98 -144q76 -10 118 -16q78 -12 91 -39q-48 -20 -177 -33q-176 -18 -219 -165q-5 -20 -5 -33q0 -64 92 -92q60 -18 155 -18q19 0 68 6t75 6 q34 0 54.5 -7t33.5 -27z" />
<glyph unicode="F" horiz-adv-x="736" d="M87 0q-3 15 11 50q8 20 22 48l132 242q3 6 47 85q33 59 33 89q0 22 -14 35q-15 8 -22 13q-14 9 -14 24q0 7 3 18q8 21 26 27q25 4 40 6q41 7 104 34q86 37 105 43q54 17 130 47q84 33 132 49q79 27 128 35l96 16q47 7 85 7l43 -4q11 -1 26.5 -8.5t22.5 -16t7 -19.5 q0 -9 -4 -19l-7 -21q-30 22 -64 31t-74 9q-72 0 -182 -36l-174 -59q-30 -9 -66 -26q-98 -47 -110 -51q-44 -15 -64 -41q-14 -17 -35 -69q-11 -27 -36 -58l-41 -52q21 -6 42 -6q27 0 60 8q84 20 107 20h36q54 0 82.5 -5.5t46.5 -27.5l-211 -45q-117 -27 -207 -65 q-53 -22 -89 -108l-57 -146q-37 -74 -96 -74v21z" />
<glyph unicode="G" horiz-adv-x="956" d="M648 21h-22q-7 2 -18 -2l-26 -9q-51 -6 -112 -8t-119 -2q-98 0 -169 33q-96 44 -96 134q0 12 1 19q11 97 95 197q73 87 169 144l308 187q84 42 143 68q114 51 174 51q34 0 54 -15t24 -49q-256 -59 -443 -151q-220 -108 -381 -278q-31 -33 -51 -75t-20 -80q0 -35 17 -62.5 t54 -46.5t79.5 -27.5t89.5 -8.5q45 0 95 7q19 3 154 29q65 13 116 90.5t51 150.5v12q-2 8 -2 11l-123 -44q-50 -17 -78 -17q-26 0 -39 11t-13 39q0 32 21.5 41.5t63.5 9.5h31h31q13 3 18 4l224 56q12 0 18 -1q-8 -66 -47 -142q-17 -33 -83 -132q-54 -82 -79 -133l-24 -77 q-15 -45 -52 -45q-11 0 -23 3q-35 8 -35 30q0 13 11.5 31.5t23.5 35.5z" />
<glyph unicode="H" horiz-adv-x="967" d="M461 296q11 -12 26 -12q10 0 28.5 6t27 6.5t99.5 4t127 28.5q44 31 94 142l38 89l88 165q11 30 24.5 58.5t18.5 40.5q10 21 22.5 27.5t33.5 6.5q12 0 22.5 -0.5t20.5 -0.5q-21 -52 -59 -115l-67 -109q-39 -66 -60 -117q-6 -15 -37 -62q-23 -35 -28 -65t-9 -38.5 t-25 -32.5q-10 -10 -19 -20q-15 -17 -25 -35l-165 -273q-1 -2 -25 -43q-13 -22 -19 -45q-9 -35 -24.5 -45t-48.5 -10h-37q0 38 29 83l48 70q20 36 104 157q40 58 61 95q-32 7 -74 7q-53 0 -115 -10t-117 -18t-167 -163q-50 -69 -106 -69q-10 0 -15 1q5 43 45 92q19 24 81 85 q54 54 72 86q-80 34 -143 77q-97 66 -97 121q0 16 9 33q13 21 30 21q26 0 69 -51l55 -69q24 -29 38 -44q26 -28 50 -33q32 -7 67 32q13 14 32 45l121 176l41 71q24 36 58 50q4 -9 7 -23.5t3 -23.5q0 -52 -47 -115q-8 -11 -97 -112q-60 -68 -75 -111z" />
<glyph unicode="I" horiz-adv-x="813" d="M956 670q-44 -13 -105 -17.5t-126 -4.5q-36 0 -49.5 -6.5t-16 -33t-4.5 -43t-18 -49.5l-220 -451q42 -9 84 -9q37 0 85.5 6.5t94.5 13.5l66 19q26 7 41 7q17 0 27 -8.5t10 -28.5q0 -7 -1 -11q-4 -28 -26.5 -38t-59.5 -10q-16 0 -47 2t-42 2h-12q-66 -7 -134.5 -17 t-141.5 -22l-142 -25l-86 -18q-22 0 -34 11t-12 40q0 40 60 55q36 9 94 9q65 0 115 57q33 38 71 116l76 160q39 81 57 151l12 44q4 15 4 25q0 11 -7.5 17t-24.5 6h-14q-4 0 -32 -5t-57 -18l-57 -25q-18 -7 -30 -9.5t-29 -2.5h-24q-13 0 -27 1q0 48 2 57q8 35 52.5 40.5 t87.5 12.5l67 11l396 44q5 -3 47 -12q21 -4 30 -43z" />
<glyph unicode="J" horiz-adv-x="670" d="M890 835q10 -13 10 -26q0 -17 -15.5 -33.5t-39.5 -29t-33 -12.5q-7 0 -20.5 14.5t-22.5 20.5q-20 12 -34 12q-15 0 -25.5 -11.5t-17.5 -33.5q-24 -75 -51 -201l-43 -203q-27 -114 -59.5 -198t-59.5 -110t-64 -26q-6 0 -20 2q-110 18 -202 90q-106 83 -106 184l22 22 q5 1 8 -6t14 -5q24 -80 36 -100q17 -27 51 -53t70 -40.5t70 -14.5q40 0 71.5 21t53.5 66q33 67 49.5 135t16.5 140q0 46 10 113l12 74q1 10 13 41t9 47q-7 39 -54 39q-40 0 -107 -28q-38 -18 -51 -23.5t-31 -12t-34 -6.5q-27 0 -40.5 17.5t-13.5 32.5q0 20 24 36q7 5 43 22 q11 6 11 14t11 8h22v-11l11 -11h11l11 11h11q27 0 56 3q44 6 65 8q162 18 186 22q44 7 111 22q18 -6 26 -9q27 -10 29 -13z" />
<glyph unicode="K" horiz-adv-x="615" d="M703 659q-21 -51 -112 -119q-61 -45 -141 -90q-70 -38 -89 -52q-53 -37 -53 -69q0 -15 10 -28.5t33 -26.5l209 -121q28 -17 36 -40t8 -60v-32q-48 0 -84 36l-70 74q-39 35 -102 68q-70 36 -118 42q-22 -98 -22 -209q-59 10 -72 16q-28 12 -49 50q43 24 63 66q20 55 36 88 l-22 22q-6 5 -8 -0.5t-3 -21.5q-7 18 -21 40q-10 16 -10 26q0 8 4.5 18.5t15.5 25.5l24 32q7 10 7 16t-2 13l-7 26q-1 6 -1 16q0 13 23 68q11 26 11 49v11l-3 34q-3 25 -3 26q0 19 7.5 30t31.5 20q10 -25 14.5 -52t4.5 -56q0 -20 -2 -66.5t-2 -50.5q0 -38 7 -72q36 15 89 52 q64 45 87 58q68 37 132 100q56 55 110 131q7 5 10 5q12 0 18.5 -25t6.5 -51q0 -11 -2 -17z" />
<glyph unicode="L" horiz-adv-x="736" d="M736 43q-5 -9 -17 -16q-6 -4 -38 -17l-11 -10q-10 -2 -14 -2q-11 0 -49 15q-21 8 -36 8q-60 5 -110 5q-55 0 -107.5 -6t-101.5 -20q-14 -4 -38.5 -8t-46.5 -4q-32 0 -53 9t-21 29q0 16 16 39l67 93q79 108 109 171l92 187q50 106 73 187q13 43 24 64q21 40 45 40 q14 0 31.5 -17.5t17.5 -41.5q0 -21 -14 -48l-27 -52l-165 -319l-121 -231q35 -8 81.5 -12t85.5 -4q56 0 166 8t162 8q0 -3 1.5 -14.5t1.5 -17.5q0 -17 -3 -23z" />
<glyph unicode="M" horiz-adv-x="1043" d="M593 340q8 -2 28 13l27 20q21 12 50 41q39 38 49 47q49 44 98 95l97 103q58 61 101 99q15 13 28 20t27 7q17 0 31.5 -15t14.5 -33q0 -21 -19 -53q-26 -44 -27 -47q-24 -68 -59 -153q-99 -238 -105 -254q-20 -52 -32 -86q-17 -50 -23 -88t-33 -51q-15 -7 -66 -15 q-4 16 -4 36q0 48 31 115q47 102 50 111q8 26 73 168q48 105 48 173q-39 -19 -91 -75q-78 -83 -85 -90q-34 -30 -77 -63l-77 -58q-13 -10 -29 -35t-26 -31q-31 -19 -57 -19q-53 0 -53 74q0 101 -5 144.5t-17 86.5q-34 -49 -72 -124q-19 -37 -61 -130q-37 -80 -65 -131 q-42 -77 -68 -102q-41 -40 -108 -40q6 48 46 116q55 93 64 114l99 198q38 105 47 120q21 34 49.5 44t34 16t12 36t14.5 41q4 6 30 29q63 -56 77 -172l22 -202h11z" />
<glyph unicode="N" horiz-adv-x="846" d="M604 230l55 99q20 53 55 115q14 26 67 113q46 76 65 113q34 68 65 104q46 55 99 61q2 -9 6 -23t4 -20q0 -14 -31 -34q-39 -25 -75 -67.5t-57 -86.5q-35 -65 -48 -92q-23 -46 -28.5 -79t-23 -47.5t-21.5 -23.5l-60 -126q-39 -86 -39 -138q-5 -61 -33 -80q-10 -7 -88 -28 l-41 187q-25 104 -58 185q-43 -38 -93 -104q-138 -181 -149 -193q-7 -7 -25 -15.5t-31 -8.5q-16 0 -24 7.5t-8 27.5q0 14 17 30l27 25q93 117 176 242q18 27 53 123q17 46 35 75q56 -31 90 -106q14 -32 45 -144q25 -92 52 -135zM725 351v-11l11 -11l11 11v11l-11 11z" />
<glyph unicode="O" horiz-adv-x="956" d="M890 637q0 -3 31 -126q12 -48 12 -79q0 -32 -10 -59q-57 -150 -162 -256q-125 -127 -267 -127h-65q-93 0 -149 9q-85 14 -128 49q-54 45 -54 127q0 110 71 220q58 90 160 176q62 52 101 80q31 23 64 41l132 110q31 17 68 17q70 0 128.5 -57t67.5 -125zM373 494 q-68 -42 -128 -117q-70 -87 -70 -152v-7q0 -61 71 -106q54 -34 127 -47q23 -4 51 -4q104 0 199.5 64.5t145.5 159.5q32 63 45 138q10 60 10 148q0 33 -5.5 49t-17.5 28t-22 15t-29 3q-8 0 -16 0.5t-20 3.5q-24 7 -49 7q-67 0 -151 -68z" />
<glyph unicode="P" horiz-adv-x="758" d="M307 571l-11 11l11 44q6 8 41 24q25 12 47 20q134 46 151 51q89 26 157 26q80 0 121 -45q37 -40 37 -106q0 -46 -19 -94.5t-51 -84.5q-46 -51 -153 -100q-81 -37 -177 -65l-154 -44q-51 -10 -85 -63q-11 -18 -47 -102q-9 -21 -20.5 -30.5t-23.5 -9.5q-15 0 -25.5 12.5 t-10.5 31.5q0 20 14 40l77 99q13 24 20.5 74t23.5 69l33 -22q10 16 75 105q90 123 90 192l-66 -33q-7 -2 -21.5 -5.5t-33.5 -5.5v11zM329 274h11q3 -1 23 5t21 6q32 6 66 18l66 26q92 32 175 92q112 81 112 159q0 35 -23 68q-13 19 -41.5 29t-61.5 10q-52 0 -99 -20t-62 -52 q-5 -10 -13.5 -36t-19.5 -41l-89 -122q-52 -74 -76 -131z" />
<glyph unicode="Q" horiz-adv-x="835" d="M582 -252q-8 12 -10.5 14t-3.5 2q0 -1 3.5 -5.5t5.5 -4.5q5 0 5 16q0 6 4 21q1 2 6 18.5t18.5 50.5t16 55t2.5 47q0 37 -5.5 64t-21 51t-33.5 24q-12 0 -30 -8l-34 -17q-93 -38 -122 -48q-85 -29 -141 -29q-43 0 -76.5 15t-55 49.5t-21.5 73.5q0 57 46 127q38 58 102 119 q37 36 103 89q105 84 191 131q108 59 216 78q5 1 32 5.5t32 4.5q17 0 31.5 -7.5t25 -24.5t15 -37.5t4.5 -42.5q0 -17 -1 -27t-7 -47q-14 -79 -63 -165q-39 -68 -102 -143l-27 -30q-7 -10 -7 -25q0 -13 1 -22q0 -21 11 -58t11 -62q0 -92 -22 -154q-30 -85 -99 -109v11z M780 626v-11l-11 -11v-11h-44q-28 -3 -55 -9l-55 -13q-108 -25 -227.5 -115.5t-179.5 -192.5q-18 -30 -29 -60t-11 -57q0 -32 19 -53t65 -28q10 -1 17.5 -1.5t12.5 -0.5q60 0 138 30q28 11 129 60q-64 57 -95 88.5t-26 54.5q5 22 14.5 31t24.5 9t30 -8t29.5 -20t40.5 -43 q38 -44 62 -44q13 0 30 9q42 25 80 85q27 43 52 102l33 75q18 45 18 74q0 24 -11.5 41.5t-39.5 29.5z" />
<glyph unicode="R" horiz-adv-x="868" d="M87 153l11 11q2 7 9 16q12 16 13 17l45 59q32 42 32 62l-22 22q0 25 11 39.5t33 26.5q49 27 87 74q45 55 45 106q0 12 -4 26t-4 19q0 13 19 28l39 32q20 16 37.5 34t22.5 18q7 -3 14 -5t19 -2h15q44 0 123 31q102 40 123.5 45t81.5 23q88 26 137 26h19q8 0 32 -5 t36.5 -21.5t12.5 -39.5q0 -21 -9 -46t-22 -46q-28 -48 -104 -97q-43 -28 -126 -68q-54 -26 -145 -62q-41 -17 -149 -57q-88 -33 -146 -57q58 -58 102 -119q49 -67 74 -134l30 -77q15 -41 15 -67q0 -32 -16 -49q-19 -21 -62 -25q0 89 -31 175.5t-90 152.5q-42 49 -64.5 64 t-43.5 15q-30 0 -57 -35q-13 -17 -34 -68q-12 -28 -21 -42q-18 -27 -38 -27q-9 0 -22 5q-27 11 -28 11v11zM362 439h11q3 -1 18 -1h14q6 0 12 1q28 4 65 16l111 39q77 24 165 75q62 36 154 101q61 45 61 88q0 41 -55 41q-20 0 -50 -8q-132 -38 -199 -65q-122 -48 -197 -107 q-93 -73 -121 -169z" />
<glyph unicode="S" horiz-adv-x="846" d="M956 780q-28 -35 -100 -58l-120 -30l-169 -42q-100 -28 -169 -62q-85 -43 -135 -105q65 -31 135 -48.5t140 -17.5q98 -9 187 -44q118 -47 118 -114q0 -20 -9.5 -40t-31.5 -44q-91 -96 -245 -144q-132 -41 -283 -41h-15q-72 0 -122.5 51.5t-50.5 116.5q0 29 10.5 51.5 t34.5 42.5q0 -111 35 -161q30 -43 86 -48q118 0 233.5 34t206.5 98q30 22 43.5 41t13.5 38q0 51 -94 88q-78 31 -150 31q-154 14 -169 16q-53 9 -95 28q-30 14 -43.5 29.5t-13.5 33.5q0 31 41 65q34 28 82 48q30 12 113 50q126 57 202 72t135 33q77 23 133 54 q11 -9 35.5 -14.5t30.5 -7.5z" />
<glyph unicode="T" horiz-adv-x="824" d="M538 670q-63 0 -166 -28l-98 -27q-50 -26 -82.5 -41t-53.5 -15q-19 0 -31.5 10t-19.5 35q-3 12 -3 23q0 27 20.5 41t47.5 14q8 0 14.5 -1.5t24.5 -3t36 -1.5q27 0 69 5q100 11 228 37l226 49q143 32 232 47l182 32q32 0 51 -8t19 -25q0 -13 -15 -33q-22 -28 -65 -43 q-34 -12 -67 -12l22 44q-29 7 -66 7q-64 0 -188 -28q-84 -19 -112.5 -24t-30.5 -5q-16 -4 -31 -16t-16.5 -54.5t-5.5 -55.5q-27 -94 -94 -206l-120 -191q-67 -112 -94 -206l-88 20q7 41 34 79l87 119q11 22 81 151q48 89 73 155q33 89 33 167l-6 -4q-18 -7 -27 -7z" />
<glyph unicode="U" horiz-adv-x="934" d="M560 670q3 -20 -13 -36l-31 -30l-35 -42q-41 -49 -64 -79l-198 -231l-31 -50q-35 -55 -35 -93q0 -31 16.5 -43t46.5 -12q24 0 45 4l35 7q104 21 201 93q77 57 161 159q50 61 133 177q68 117 112 180q81 117 151 117q2 -14 2 -21q0 -51 -57 -118q-75 -88 -87 -114 q-21 -44 -60 -89l-74 -86q-42 -50 -66 -90l-47 -83q-28 -53 -28 -92v-12q0 -60 85 -75q54 -9 69 -21l-43 -11q-50 -14 -75 -14q-31 0 -57.5 14t-36 45.5t-9.5 74.5v28q0 13 1 26q-41 -17 -137 -72q-142 -81 -237 -81q-56 0 -76 9q-34 15 -34 67q0 45 28 97q12 22 104 145 q23 30 124 135q45 47 74 85q3 4 45 69q49 76 98 85v-22z" />
<glyph unicode="V" horiz-adv-x="692" d="M263 175q7 1 23 19l21 25q65 65 136 169q23 34 117 183q39 62 78 114t87 106l99 110q22 27 47 36t59 9q11 0 23 -0.5t25 -0.5q-185 -165 -341.5 -357.5t-285.5 -412.5l-77 -143q-11 -18 -26.5 -27.5t-30.5 -9.5q-23 0 -41 18t-21.5 42.5t-4.5 45.5t-1 41q0 39 3.5 109 t3.5 90q0 33 -3.5 68t-12.5 85t-20 99q-4 16 -13.5 44t-9.5 38q0 16 11.5 27t44.5 23q24 -69 32.5 -214.5t10.5 -160.5q14 -107 56 -175h11z" />
<glyph unicode="W" horiz-adv-x="1219" d="M1054 758q-2 10 1.5 22.5t9.5 21.5q11 16 32.5 25.5t44.5 9.5q27 0 44 -13q36 -27 51 -66.5t15 -92.5q0 -51 -15 -115q-8 -36 -29 -100q-39 -124 -149 -227q-102 -96 -235 -147q-48 -18 -63 -22q-37 -11 -69 -11q-52 0 -82 53q-10 17 -39 101q-42 -20 -95 -61l-89 -73 q-51 -41 -90 -62.5t-68 -32.5q-42 -16 -75 -16q-16 0 -34 5q-34 11 -34 37q0 17 17 46l28 47q29 57 83 127l95 121q58 75 86 126l29 53q22 36 36.5 46t27.5 10q18 0 29.5 -15.5t11.5 -35.5v-9q-2 -4 -2 -5q-10 -37 -62 -94q-69 -76 -82 -95t-79 -99q-96 -116 -96 -185 q48 14 101 44q40 22 97 64q30 22 88 68q36 29 68 72l86 126q22 28 37 28q12 0 18.5 -18.5t6.5 -44.5q0 -13 -2 -26.5t-4.5 -23t-27.5 -69.5q-20 -47 -20 -76q0 -35 25 -56q18 -15 44 -15q31 0 80 27l74 43q136 70 225 190q97 131 97 273v33q-3 15 -4.5 26.5t-11.5 37t-22 35 t-24 9.5q-17 0 -43 -18q-32 -22 -42 -25v22z" />
<glyph unicode="X" horiz-adv-x="714" d="M527 32l-19 54q-20 56 -36 90l-34 70q-28 50 -54 50t-82 -62l-72 -81q-40 -49 -69.5 -79.5t-46.5 -30.5q-21 0 -27 44q-1 7 -1 21q0 22 11 33t19 11q9 -2 14 -2q4 0 13 4t21 17l22 26q3 3 71 58q82 67 82 120q0 21 -10 42q-48 101 -132 176q-27 24 -27 58q0 23 13 39 t33 16q23 0 47.5 -26t56.5 -81l53 -94q22 -37 34 -50q16 -17 33 -17q24 0 65 34q35 28 87 83q32 36 45 49q19 20 41 50l36 49q16 19 34 19q32 0 32 -52q0 -45 -70 -100l-106 -76l-58 -47q-32 -27 -52 -52q-15 -19 -15 -36q0 -12 9 -29l16 -33q8 -16 70 -109q47 -70 47 -109 q0 -26 -19 -46t-64 -33z" />
<glyph unicode="Y" horiz-adv-x="626" d="M175 -109v22l11 11q2 19 10 46l12 40q33 89 48 133q29 81 29 142q0 76 -48 166l-84 153q-33 45 -51 75t-18 51q0 15 7.5 24t28.5 15q38 11 85 -82q7 -14 58 -138q7 -17 20 -38l24 -39q19 -27 36 -27q7 0 18 7l34 20q59 35 122 90q55 48 109 108q46 66 73 101q51 66 89 66 q13 0 23.5 -5.5t23.5 -18.5q-96 -107 -198 -209q-16 -16 -88 -79q-97 -85 -132 -152q-21 -42 -42 -122q-28 -110 -35 -131l-37 -150q-27 -70 -117 -90z" />
<glyph unicode="Z" horiz-adv-x="989" d="M417 725q11 7 21 7q1 0 18 -5q7 -2 16 -2q52 0 105 11l104 22q90 20 150 30.5t101 10.5q46 0 70.5 -12.5t24.5 -42.5t-27 -74q-20 -33 -70 -75l-84 -68l-209 -176q-42 -35 -126 -88q-98 -61 -131 -87q-70 -54 -106 -111q19 -5 34.5 -6t40.5 -1q17 0 68 3.5t77 3.5 q68 6 138.5 8.5t158.5 2.5h30q48 0 83 -7.5t35 -31.5q0 -15 -15.5 -35.5t-34.5 -20.5q-14 0 -37 11q-32 16 -39 18q-17 7 -41 10t-43 3q-12 0 -36 -1t-34 -1q-101 0 -227 -14q-47 -5 -136 -17l-111 -38q-12 0 -21 5l-47 22q-30 17 -30 37q0 17 22 38q9 9 33.5 18.5 t32.5 14.5q23 15 43 31l67 57l275 198q114 76 202 154q104 92 172 187q-19 8 -42 12t-45 4q-60 0 -182.5 -38.5t-177.5 -38.5q-30 0 -54 6.5t-49 21.5l13 19q16 23 20 25z" />
<glyph unicode="[" horiz-adv-x="714" d="M648 736q-13 -75 -111 -95q-68 -9 -98 -15l-124 -25q-30 -7 -74 -19q-29 -8 -36 -21.5t-7 -42.5q-1 -14 -1 -22v-13q0 -51 -5.5 -170.5t-5.5 -159.5q0 -11 -0.5 -20.5t-0.5 -18.5q0 -28 10.5 -38.5t45.5 -10.5q46 0 140.5 5.5t123.5 5.5l27 -6q9 -4 28 -16h11l-11 -44 q-9 -13 -21.5 -19t-24.5 -6q-11 0 -35.5 7t-33.5 9t-25 3t-37 1q-31 0 -131 -10q-50 -5 -77 -5q-51 0 -67.5 8t-16.5 35q0 8 1.5 20t5.5 34q14 82 23.5 172.5t9.5 168.5q0 19 -18 91q-9 36 -9 54q0 25 13 39t47 14q81 0 159 17.5t155 47.5q50 20 148 67z" />
<glyph unicode="\" horiz-adv-x="582" d="M252 582q21 -36 48 -75l84 -123l70 -115q42 -65 84 -105q19 -18 30 -43.5t11 -50.5q0 -33 -18.5 -57.5t-55.5 -33.5q-12 40 -44 102l-55 105q-20 42 -54 92q-91 134 -100 150q-19 35 -44 67q-4 5 -88 98q-27 30 -27 53q0 32 60 57q34 0 70 -66q14 -28 29 -55z" />
<glyph unicode="]" horiz-adv-x="769" d="M681 736q32 0 44.5 -15t12.5 -44q0 -24 -12 -73t-12 -66q0 -40 -8 -120t-8 -120q0 -44 5.5 -77t21.5 -68q2 -5 29 -41q19 -26 19 -47q0 -11 -4 -22q-10 -23 -22.5 -28t-43.5 -5q-170 0 -220 -3.5t-121 -16.5q-22 -6 -44 -6q-20 0 -33 7.5t-13 25.5q0 3 2.5 15.5t32.5 50 t44 37.5q11 1 28 -13q22 -18 27 -20q20 -7 35.5 -9.5t36.5 -2.5h24q13 0 27 1h9q58 0 74 12t16 48q0 7 -1 27t-1 34v187v209q0 36 -12 48t-38 12q-14 0 -43 -2.5t-39 -2.5l-198 -11q-18 0 -33 -0.5t-28 -0.5q-40 0 -62 5t-22 22q0 9 5.5 18t18.5 22q9 9 22.5 13t28.5 4 q19 0 45 -5q64 -12 80 -12q55 0 131 7l144 15q11 1 27 6t28 5z" />
<glyph unicode="^" horiz-adv-x="648" d="M505 582q-48 -17 -108 -78q-82 -84 -101 -98q-13 -10 -70 -81q-42 -53 -77 -53q-18 0 -40 13q-28 17 -28 36q0 26 59 61l79 46l286 242l42 46q29 28 48 28q12 0 20 -11.5t11 -40.5q10 -89 16 -177t6 -175q0 -29 -16.5 -53.5t-37.5 -24.5q-20 0 -34 23q-10 16 -10 37 q0 12 3 27q7 36 7 46q0 69 -6 114t-27 95z" />
<glyph unicode="_" horiz-adv-x="824" d="M747 76q25 0 48.5 -22.5t23.5 -45.5q0 -9 -6 -18q-12 -20 -28.5 -20.5t-26.5 -1.5l-11 -11q-18 0 -56 26q-22 15 -50 17.5t-60 2.5q-39 0 -93 -4q-123 -9 -148 -9q-41 0 -124 -17t-124 -17q-12 1 -18 1h-9q-31 3 -46.5 16t-15.5 31q0 20 20 36.5t50 16.5q11 0 25 -3 q67 -15 152 -15q59 0 146 8q196 18 241 18q18 0 59.5 5.5t50.5 5.5z" />
<glyph unicode="`" horiz-adv-x="395" d="M120 494q-51 6 -102.5 54.5t-51.5 95.5q0 22 12.5 39.5t42.5 30.5q49 -27 76 -96q23 -59 23 -124z" />
<glyph unicode="a" horiz-adv-x="582" d="M582 384q0 -43 -15.5 -91t-40.5 -87l-26 -41q-20 -34 -20 -66q0 -14 3 -34q8 -49 42 -62q39 -6 79 -13q-12 -28 -27.5 -41.5t-32.5 -13.5q-38 0 -87 58q-39 46 -62 94q-97 -46 -120 -55q-95 -39 -151 -39q-43 0 -66 20q-26 23 -26 74q0 146 162 263q131 94 300 133 q29 0 58.5 -34.5t29.5 -64.5zM560 395q-8 14 -27 19.5t-43 5.5q-16 0 -28.5 -1t-22.5 -2q-58 0 -124 -44q-33 -22 -107 -88q-40 -37 -71 -76q-47 -60 -47 -99q0 -38 41 -56q21 -9 47 -9q49 0 112 32q54 27 94 65q13 12 69 110q38 66 96 66q5 9 10 28.5t5 31.5t-4 17z" />
<glyph unicode="b" d="M208 197q-20 -33 -32 -63q-15 -38 -15 -66q0 -24 12 -37t41 -13q12 0 27 3q92 18 189 71q110 59 152 127q17 27 17 49q0 37 -42 54.5t-96 17.5q-77 0 -146 -39t-107 -104zM21 43q0 19 22 43l33 34q44 55 116 138l71 82l123 143q70 85 110 159l81 153q56 84 137 84 q-16 -70 -93 -165l-72 -88l-83 -105q-49 -66 -60 -115l160 -32q97 -31 97 -102q0 -26 -15 -64q-30 -73 -164 -142q-64 -33 -210 -87q-15 -6 -32.5 -9t-30.5 -3q-31 0 -67 13q-107 38 -123 41v22z" />
<glyph unicode="c" horiz-adv-x="736" d="M593 384q-14 -44 -29 -68q-22 -35 -50 -35q-11 0 -20 4q-31 13 -31 34q0 16 29.5 49.5t34.5 48.5q-17 4 -39 4q-55 0 -135 -34l-79 -36q-67 -30 -120 -82q-66 -65 -66 -126q0 -24 10 -45q22 -48 80 -70q48 -18 122 -18q44 0 71 3t123 19q17 3 68.5 6t60.5 4.5t34.5 13.5 t35.5 12q5 0 10 -3l11 11q15 1 22 1q3 0 3 -2t-12 -9t-43 -22l-25 -12q-102 -41 -209 -53q-30 -4 -76.5 -7.5t-83.5 -3.5q-118 0 -183 30q-86 40 -86 133q0 85 76 160q58 57 155 104q88 42 156 69q87 35 163 52q23 -13 32.5 -26.5t9.5 -30.5q0 -16 -7.5 -37.5t-12.5 -37.5z " />
<glyph unicode="d" horiz-adv-x="593" d="M472 340v22l11 11v11l110 297q9 34 11 38q9 19 29 19q3 0 15 -2q18 -5 25.5 -13.5t7.5 -19.5q0 -14 -12 -36l-21 -41q-22 -57 -65 -156.5t-65 -155.5q-37 -94 -57 -161q26 -2 45 -4t19 -13q0 -5 -9 -16q-23 -21 -31 -29q-13 -14 -22.5 -34t-23.5 -26.5t-35 -6.5 q-14 0 -47 4t-49 4h-12q-21 -2 -51.5 -4t-57.5 -2q-41 0 -69.5 3.5t-52.5 14t-34.5 27.5t-10.5 40q0 33 22 75q18 35 45 66q46 55 114.5 88.5t139.5 33.5q14 0 21 -1q24 0 51 -17q36 -23 48 -27zM109 197q-25 -31 -25 -55q0 -33 51 -48q38 -11 102 -11q34 0 48 1q16 3 22 3 q42 6 68.5 45t26.5 85q0 40 -19 63q-22 27 -65 27q-48 0 -112.5 -34.5t-96.5 -75.5z" />
<glyph unicode="e" horiz-adv-x="571" d="M472 384q25 -14 39 -38t14 -50q0 -41 -31 -66q-42 -33 -87.5 -47.5t-95.5 -14.5q-29 0 -61.5 5t-63.5 13q-12 3 -20 9t-10 6q-6 0 -25 -15q-33 -24 -33 -56q0 -47 55 -65q39 -12 88 -12q29 0 70 5t69.5 8t90 6.5t100.5 3.5q-38 -42 -157 -56l-107 -10q-19 -2 -45.5 -3.5 t-43.5 -1.5q-85 0 -133 20q-65 27 -65 91q0 10 2.5 30t26.5 56q9 14 49 61q47 55 127 92q51 23 148 51q3 -4 28 -8q62 -9 71 -14zM439 307q-3 4 -21 12.5t-28 10.5t-24 2q-36 0 -80 -23l-45 -24q35 -55 94 -55q68 0 115 66z" />
<glyph unicode="f" horiz-adv-x="626" d="M208 274h-22q-17 4 -61 -20q-25 -13 -40 -13h-10q-26 0 -40.5 10.5t-14.5 27.5q0 10 5 19.5t18 19.5q18 13 42.5 17.5t55.5 4.5h30q33 0 47 1.5t34 9.5q31 13 58 57l41 75q46 73 68 103q42 58 84 99q50 48 100 72t109 24q51 0 89.5 -18.5t55.5 -59.5q7 -18 7 -39 q0 -41 -25.5 -80t-58.5 -57q2 17 13.5 53t11.5 54q0 16 -5.5 30t-19.5 28t-32 20.5t-39 6.5q-19 0 -39 -4.5t-44 -11.5q-92 -30 -151 -136l-91 -183q92 -27 97 -29q46 -22 46 -70q-22 0 -70 12t-70 12t-38.5 -7.5t-30.5 -27.5q-22 -30 -47 -86l-41 -90q-29 -56 -62 -81 t-92 -38q0 23 2 39.5t8 31.5t17 32q15 22 18.5 30t13.5 22l29 41l55 88z" />
<glyph unicode="g" horiz-adv-x="527" d="M-131 -318l11 -11q11 -2 28 -14q25 -18 27 -19l62 -35q38 -20 68 -20q9 -1 25 -1q129 0 220 114q81 102 96 239q1 14 2 29.5t1 18.5q0 25 -2.5 38.5t-11.5 21.5q-12 11 -28 11q-10 0 -31 -5.5t-29 -5.5q-98 0 -147 9q-94 17 -117 68q-7 17 -7 37q0 64 69 141 q62 69 125 97q34 15 81.5 26.5t86.5 11.5q60 0 93 -24q39 -28 39 -88q0 -16 -3 -33.5t-18 -49.5t-15 -52q0 -51 -1.5 -70t-8.5 -56.5t-14 -141.5q-3 -46 -9 -82q-23 -128 -130 -219.5t-235 -91.5q-21 0 -42 3q-77 11 -152 55q-55 31 -55 58q0 14 11 41h11zM197 296 q-33 -25 -56 -57q-26 -36 -26 -66q0 -21 14 -37.5t52 -28t87 -11.5q33 0 58 5.5t47 18.5q28 18 28 34q0 5 -5 19t-5 25q0 10 4 21q28 44 44 72t16 44q0 18 -16.5 28t-54.5 10q-45 0 -99 -24q-43 -19 -88 -53z" />
<glyph unicode="h" horiz-adv-x="747" d="M560 725q0 -20 -16 -48l-28 -51l-154 -308l209 88q49 21 77 32t45 11q18 0 31.5 -9.5t22.5 -34.5t9 -51q0 -50 -35 -117l-67 -126q-37 -71 -37 -113q0 -34 20 -63l-29 -15q-14 -7 -37 -7q-43 0 -43 42q0 35 30 102l24 52q9 21 39 81q43 85 43 140q0 18 -5 43 q-165 -19 -329 -130q-170 -116 -232 -264q-18 7 -36 13t-41 8q10 42 62 98q39 42 48 55l165 209q43 68 65 107q33 58 56 113l41 101q26 58 58 86q3 -4 28 -13q16 -6 16 -31z" />
<glyph unicode="i" horiz-adv-x="307" d="M263 736l22 -44l14 -14q18 -14 19.5 -21.5t1.5 -10.5q0 -20 -17 -31t-40 -11q-27 0 -39 11.5t-12 30.5q0 21 12 57q16 46 17 55q1 -1 3 -2q15 -13 19 -20zM197 362q13 -13 13 -32q0 -20 -12 -48l-23 -52q-6 -22 -21 -55q-19 -43 -23 -55q-18 -51 -30 -62q-17 -15 -69 -15 q-2 19 -2 21q-4 24 -4 26q0 10 5 26.5t22 40.5t23 40l37 102q23 54 62 85z" />
<glyph unicode="j" horiz-adv-x="406" d="M285 340l11 -11v-11q5 -10 5 -20q0 -19 -15 -55q-21 -51 -23 -57q-19 -65 -41 -128q-17 -49 -80 -211q-26 -68 -91 -142q-61 -69 -127 -111q-21 -13 -41 -19.5t-41 -6.5q-46 0 -88 31t-72 83q-21 37 -34 69q-17 43 -17 77q0 22 6.5 40t24 35.5t41.5 17.5t34 -30 q2 -8 2 -10q0 -10 -9 -18q-13 -12 -15 -16q-5 -10 -8 -25.5t-3 -29.5q0 -62 40 -113.5t97 -51.5q27 0 50 11q117 52 193 182q53 90 106 262q67 216 84 258h11zM274 626q-2 10 5.5 23t16.5 21q25 20 51 20q15 0 26 -9q38 -34 38 -53q0 -13 -16 -19t-39 -6q-26 0 -44.5 3.5 t-37.5 8.5v11z" />
<glyph unicode="k" horiz-adv-x="593" d="M21 32q-3 29 31 84q42 67 46 81q1 3 14 48.5t30 61.5q43 38 72 86q23 38 49 101l110 198q8 21 32 69.5t33.5 74t19 36t20.5 10.5q13 0 26 -13t13 -28t-12 -35l-22 -37q-26 -51 -86 -142q-64 -98 -89 -145q-44 -83 -56 -153q60 14 166 65q68 33 98.5 45.5t102.5 77.5 q35 32 62 43q10 -20 10 -41q0 -77 -144 -149q-55 -27 -218 -85q-32 -12 -45 -23t-13 -27q0 -11 5 -29l9 -31l44 -121q1 -3 53 -108q19 -38 19 -61t-13.5 -40t-47.5 -31q-7 31 -25 68q-50 103 -52 108l-44 108q-12 35 -22 48q-14 17 -44 29q-5 -13 -12.5 -28t-9.5 -27 l-11 -55v-22q-11 -22 -44 -29q-20 -4 -55 -4v22z" />
<glyph unicode="l" horiz-adv-x="395" d="M483 758q3 -9 3 -17q0 -14 -8 -30l-17 -30q-17 -39 -60 -101q-48 -69 -61 -97q-28 -58 -62 -118l-65 -120q-38 -73 -60 -125l-26 -76q-19 -44 -51 -44q-27 0 -38.5 7.5t-11.5 21.5q0 18 19 50l31 52q29 56 73 125l79 123q44 72 68 126l30 65q34 74 47 111l21 70 q13 33 45 51q6 5 24 -16t20 -28z" />
<glyph unicode="m" horiz-adv-x="967" d="M21 21q-2 24 36 66l30 33q23 29 40 47l70 74q7 8 23 41q25 51 54 58q10 2 29 3t39.5 9t49.5 24l56 29q26 13 44 13q41 0 64 -57q9 -21 26 -98q11 5 176 95q63 34 110 48q18 5 33.5 8.5t24.5 3.5q21 0 30 -12q16 -20 16 -48q0 -17 -3.5 -30.5t-12.5 -42.5l-143 -242 q-3 -12 -3 -24q0 -16 1.5 -28.5t4.5 -30.5q0 -8 -3 -14q-11 -24 -29 -24q-16 0 -31 17.5t-17 37.5t-2 27q0 53 37 117l70 108q38 64 38 111q-59 -17 -124 -50q-15 -7 -195 -115q-29 -17 -71 -54q-68 -60 -116 -60h-15q-12 3 -18 4q5 44 66 88q37 27 55 55q23 37 23 63 q0 14 -5 28t-18 41q-69 -33 -129 -81q-53 -42 -113 -106l-86 -104q-47 -49 -112 -49v21z" />
<glyph unicode="n" horiz-adv-x="604" d="M32 10l-11 11q-1 4 4.5 22.5t6.5 21.5q9 24 32 54q66 88 67 89l88 121q14 38 23 58q17 37 31.5 39.5t18.5 2.5h4q17 0 24 -8.5t7 -24.5q0 -18 -10 -45.5t-21 -54.5q7 3 110 57q77 41 122 41q28 0 50.5 -15t36.5 -50q5 -10 8 -26t3 -27q0 -48 -47 -126q-33 -55 -41 -74 l-22 -22q-2 -11 4 -21.5t6 -12.5q0 -9 -10 -20q-15 -16 -37 -16q-19 0 -34 10.5t-17 26.5q-5 38 42 97q63 78 68 90q10 23 10 44q0 27 -17.5 42.5t-44.5 15.5q-11 0 -25 -3q-76 -18 -155 -92l-128 -132q-76 -71 -146 -83v10z" />
<glyph unicode="o" horiz-adv-x="725" d="M714 285q16 -38 16 -71q0 -106 -159 -167q-123 -47 -253 -47q-95 0 -146 12q-83 19 -118 75q-7 12 -10.5 23t-3.5 25q0 42 41 86q32 34 83 64q79 47 96 56q60 32 97.5 42t69 14.5t67.5 4.5q77 0 129 -24q63 -29 91 -93zM131 109q15 -17 57 -35q36 -15 62 -19t50 -4 q39 0 61 3t122 22q58 12 114 50q69 46 69 96q0 16 -6.5 31t-22.5 32q-22 24 -58.5 34.5t-79.5 10.5q-48 0 -93 -12q-87 -22 -165 -68q-90 -53 -132 -119z" />
<glyph unicode="p" horiz-adv-x="648" d="M153 296v11q-6 12 -6 22q0 28 39 51q30 18 66 26l121 34q92 25 146 25q51 0 84.5 -18.5t44.5 -62.5q4 -15 4 -31q0 -57 -56 -116q-24 -25 -100.5 -83t-181.5 -101q-90 -37 -194 -63q-65 -17 -104 -84q-1 -1 -56 -128q-34 -78 -80 -107q-17 -11 -33 -11q-27 0 -33 33 q-3 18 30 62l47 59q10 15 79 95q50 58 62 101q9 30 32 46q32 23 45 42q8 12 57 79q64 87 64 141q-22 -13 -32 -18q-19 -11 -34 -15zM197 65q37 7 90 32q23 11 86 45q48 26 112 90l64 64q14 14 22 28q12 19 12 33q0 12 -7.5 21.5t-26.5 16.5q-27 10 -58 10q-58 0 -113 -35 t-82 -85q-16 -30 -60 -85q-72 -91 -72 -146q3 1 7 3q19 7 26 8z" />
<glyph unicode="q" horiz-adv-x="703" d="M340 54q-8 13 -22 13q-9 0 -25 -6t-20 -7t-14 -1q-21 0 -53 6t-42 6q-70 7 -86 13q-41 16 -46 64q0 50 47 104q34 39 85 72q91 58 170 96q96 47 182 69q40 10 73 10q107 0 107 -103q0 -36 -15 -83q-31 -98 -133 -190l-186 -160q-17 -16 -34 -35t-20 -37.5t-3 -25.5 q0 -22 7 -51q17 -70 17 -82q0 -67 -30 -120q-33 -58 -91 -78q-29 -11 -66.5 -19t-72.5 -8q-44 0 -66 13q-27 16 -27 53q0 12 3 27q11 53 63 110l95 97q51 58 60 112q-23 3 -36 3q-10 0 -30 -3q0 43 10 61t33 18q19 0 56 -13l11 -11q9 -3 18 -3q27 0 52 26q15 15 40 52z M252 307q-46 -17 -93.5 -65.5t-47.5 -84.5q0 -22 20.5 -35t65.5 -13q99 0 168 14q86 18 151 63q34 24 67 75q37 57 37 97q0 27 -19.5 43t-62.5 16q-64 0 -145 -40zM219 -197l-33 -22q-57 -61 -81 -92q-45 -57 -62 -106q41 -20 78 -20q62 0 97 59q31 53 31 132q0 34 -8 71 q-7 -7 -13 -14q-2 -2 -9 -8z" />
<glyph unicode="r" horiz-adv-x="516" d="M241 472q6 -40 13 -79q9 -32 45 -32q12 0 27 2t39 2q58 0 95 -21q46 -26 56 -81l-183 58q-23 0 -41.5 -7.5t-39.5 -28.5q-39 -39 -62.5 -84.5t-36.5 -102.5q-16 -68 -45 -97q-34 -33 -98 -33q6 51 61 130q59 86 71 132q4 17 14.5 117t62.5 125h22z" />
<glyph unicode="s" horiz-adv-x="714" d="M725 549q-8 -45 -49 -66q-10 -5 -149 -33q-66 -13 -106 -29q-55 -22 -92 -59q119 -30 186 -52q126 -41 126 -106q0 -22 -15 -51q-40 -71 -165 -130q-117 -55 -209 -55q-84 0 -152.5 65.5t-68.5 145.5q0 12 1 18q38 -13 93 -95q51 -76 105 -81q67 0 163 36t145 85 q27 27 27 51q0 35 -59 62q-40 18 -100 29l-118 21q-64 15 -102 57q29 32 73.5 54.5t157.5 55.5q133 39 275 88q15 -9 33 -11z" />
<glyph unicode="t" horiz-adv-x="549" d="M538 725q14 -14 14 -36q0 -41 -52 -111l-39 -51l51 -32q38 -27 38 -65q0 -8 -1 -13q-23 5 -56.5 16t-50.5 11q-15 0 -32 -6.5t-37 -20.5q-47 -33 -108 -101t-90 -119l-25 -45q-13 -22 -13 -39q0 -16 11.5 -30.5t37.5 -28.5q82 -41 185 -41q39 0 79 8q0 -3 1 -5 q12 -8 10 -16l-55 -21q-22 -4 -43.5 -6t-46.5 -2q-36 0 -74.5 5t-84 15t-75 38.5t-29.5 70.5q0 24 12 53q20 49 72 107q142 159 148 168q-10 1 -19 1.5t-22 0.5q-26 0 -42 -2.5t-38 -10.5l-46 -20q-26 -11 -43 -11q-15 0 -32 9q-23 14 -23 33t23 33q13 7 27.5 9.5t38.5 2.5 q11 0 26.5 -0.5t34.5 -0.5h16q66 7 98 15q60 14 90 41t58 72q11 18 73 147h3q18 -10 30 -22z" />
<glyph unicode="u" horiz-adv-x="802" d="M131 54h22q12 -3 26 -3q32 0 79 18l71 29q107 37 190 102q89 69 140 162q35 64 49 84q39 54 72 48q18 -3 25 -11t7 -21q0 -18 -16 -47q-10 -18 -27 -42q-20 -28 -78 -93q-89 -99 -109 -171q-6 -21 -6 -33q0 -25 21 -30q8 -2 26 -2q17 1 26 1q27 0 37.5 -5.5t16.5 -18.5 q-12 -2 -52 -13t-63 -11q-13 0 -28 3q-27 6 -39 22q-15 20 -15 69v33q0 12 -1 18q-79 -49 -113 -68q-69 -38 -123 -57q-69 -24 -130 -24q-34 0 -63 6.5t-42 19.5t-13 32q0 31 38 82l60 74q29 38 71 85l128 136q22 23 41.5 34.5t33.5 11.5q23 0 23 -23q0 -26 -31 -65 t-95 -103q-72 -71 -96 -100q-49 -59 -74 -118z" />
<glyph unicode="v" horiz-adv-x="450" d="M560 549q0 -58 -54 -120q-30 -34 -116 -103q-78 -63 -105 -96q-8 -10 -63 -147q-37 -93 -102 -93q-34 0 -46.5 23.5t-12.5 65.5q0 23 2.5 58.5t2.5 39.5q0 14 -1 20q-21 67 -34 112t-13 74q0 30 15.5 46t30.5 16q21 0 38 -34q14 -29 20 -80l10 -99q6 -48 21 -90 q31 31 123 138q43 50 75 82l187 187h22z" />
<glyph unicode="w" horiz-adv-x="989" d="M494 274h11q14 -7 19.5 -17t5.5 -23q0 -6 -1 -13t-3 -17.5t-15.5 -45.5t-13.5 -51q0 -17 9 -29.5t32 -23.5q31 -15 74 -15q36 0 87 13q23 6 81 24q81 26 123 85.5t42 145.5q0 23 -4 36.5t-18 29.5l-22 22h-11l-11 11h-11l-11 11l11 11q-3 4 -1.5 5.5t5.5 1.5q6 0 22 -5 q2 0 7 -2q18 -2 33 -16q9 -9 22 -28q39 -62 39 -140q0 -58 -23 -102.5t-71 -65.5q-95 -43 -144 -60q-97 -34 -166 -34q-50 0 -91 17t-72 55v22q-12 9 -24 9q-15 0 -38 -12q-33 -18 -37 -19l-94 -36q-49 -18 -82 -18q-47 0 -74 11q-40 16 -47 54q-6 39 53 107l90 102l40 65 q31 44 57 44q13 0 24 -10q19 -15 19 -38q0 -32 -46 -85q-30 -32 -40 -43.5t-63 -62.5q-36 -35 -57 -68q28 -16 34 -18q14 -6 28 -6l26 2q26 4 57 16.5t42 16.5q36 14 61 28q35 19 48.5 37.5t30.5 48.5l47 84z" />
<glyph unicode="x" horiz-adv-x="670" d="M21 32q0 14 21 32q16 14 34 23q29 16 65 30q3 1 67 25q23 8 46 17q28 12 42 27t14 35q0 36 -55 93l-47 48q-12 12 -45 37q-57 43 -57 67q0 14 14.5 28t28.5 14q13 0 29 -16l30 -31q38 -36 64 -66q33 -38 57.5 -76.5t35.5 -50.5q16 -17 37 -17q18 0 49.5 13t76.5 46 q107 79 120 85h11q11 -8 11 -22q0 -11 -6.5 -23t-15.5 -21q-20 -22 -62 -45q-33 -18 -69 -32t-50.5 -34.5t-14.5 -48.5q0 -32 28 -107t28 -112q0 -14 -3 -26q-12 13 -77 137q-46 87 -99 87q-15 0 -33 -6q-40 -14 -95 -49l-92 -61l-29 -18q-8 -5 -16 -5q-10 0 -43 12v11z" />
<glyph unicode="y" horiz-adv-x="560" d="M604 483q13 -12 13 -29q0 -24 -28 -62l-40 -52q-18 -29 -51 -70q-88 -111 -92 -117l-53 -66q-12 -18 -12 -37q0 -17 10 -40q-75 -21 -143 -108q-27 -35 -99 -154l-66 -110q-15 -31 -34 -31q-9 0 -27 11l-36 20q15 31 46 69q89 108 95 118q49 52 74 83t25 49q3 34 -24 39 l-53 4q-52 15 -76 80q-19 52 -19 138q0 53 6 106q3 31 12 82q41 0 57 -29q13 -24 13 -72q0 -14 -3.5 -61.5t-3.5 -71.5q0 -67 22 -98q29 -42 102 -42q46 0 106 86q19 27 48 79q74 134 93 164q59 93 116 144z" />
<glyph unicode="z" horiz-adv-x="637" d="M461 417q-6 2 -15.5 3t-19.5 1q-19 0 -52 -4q-74 -9 -92 -9q-36 0 -53 10q-21 13 -21 43q0 23 10.5 33.5t28.5 10.5t47 -9q77 -24 84.5 -24.5t17 -1t16.5 -0.5q27 0 65 4q85 9 105 9q30 0 43 -10t13 -27t-13 -37.5t-32 -35.5l-121 -98l-121 -97q-69 -54 -121 -91 q29 -12 82 -12q34 0 64 2q104 7 113 7q53 0 90 -11t58 -41q-44 -10 -161 -11.5t-158 -10.5q-53 -8 -79 -11q-48 -7 -75 -20q-6 -3 -18.5 -18t-25.5 -15h-22v11l-11 11h-11l-11 -11h-11l-11 -11l-11 11q-3 15 -3 28q0 52 60 91l119 77q20 16 101 75q66 48 101 80q53 48 84 98 z" />
<glyph unicode="{" horiz-adv-x="703" d="M582 956q-8 -44 -96 -86q-122 -58 -136.5 -69.5t-47.5 -48.5q-39 -44 -39 -60q0 -45 73 -57q29 -5 59 -9q30 -7 55.5 -30.5t25.5 -50.5q0 -10 -4 -18q-11 -25 -68 -55l-86 -44q31 -17 52.5 -50.5t24.5 -37.5l-165 -176q-29 -21 -29 -39q0 -21 37 -39q30 -15 70 -21 t90 -8.5t107 -2.5q21 0 45 1l47 2q37 0 60 -7t35 -29q-106 -22 -224 -22q-40 0 -85 3t-87 8q-59 8 -118 17q-69 20 -80 82q-1 4 -1 12q0 35 37 74l74 65q45 40 55 69q-12 0 -35 -1.5t-24 -1.5q-29 0 -47 7t-26 27.5t-8 36.5q0 37 41 53q93 35 101 39q54 27 75 71 q-77 26 -102 41q-54 31 -54 76q0 22 13 48q35 68 106 121q86 65 246 121q15 -9 33 -11z" />
<glyph unicode="|" horiz-adv-x="362" d="M351 703q9 -8 9 -29q0 -14 -3 -29.5t-6 -29.5q-6 -44 -23 -101l-32 -108l-77 -264q-2 -9 -4.5 -74t-28.5 -89q-15 -15 -26 -15q-12 0 -23.5 20t-16.5 26h-22q-12 16 -12 31t18 35q23 26 27 33q29 54 66 170l32 103q9 28 28 138q28 168 83 194z" />
<glyph unicode="}" horiz-adv-x="670" d="M329 472q-13 13 -21.5 32t-8.5 37t8 30q14 20 62 44l70 33q38 21 88 67q60 55 66 87q2 12 2 16q0 44 -61 61q-40 11 -109 11h-30q-56 0 -88.5 14.5t-32.5 40.5q0 21 11 30t30 9q9 0 23.5 -2.5t23.5 -3.5q128 -19 186 -39q122 -41 122 -115q0 -62 -50 -115 q-26 -27 -106 -85q-73 -53 -97 -86q19 -7 39 -10t33 -3q8 0 27.5 1t32.5 1q32 0 44 -4q23 -8 23 -31q0 -6 -1 -9q-5 -30 -81 -62q-10 -4 -106 -37q4 -6 126 -83q43 -27 43 -57q0 -12 -6 -26.5t-20 -31.5q-32 -40 -93 -78l-105 -65l-92 -66q-58 -36 -105 -36q-14 0 -34 5 q19 53 87 95l131 68q80 43 112 88q13 19 13 34q0 33 -87 56q-99 26 -113 42q-21 25 -21 47q0 28 38 49q28 15 71 25q-5 2 -16 7q-24 11 -28 15z" />
<glyph unicode="~" horiz-adv-x="736" d="M461 318q12 -30 38.5 -46.5t60.5 -16.5q20 0 44 8l67 61q26 24 41 24q20 0 24 -41q6 -53 -65 -88q-64 -31 -146 -31q-38 0 -65.5 7.5t-42.5 23.5q-8 10 -18 43.5t-24 43t-28 9.5q-12 0 -30 -7q-27 -11 -32 -12q-56 -27 -90 -42t-53 -15q-37 0 -44 46q-1 5 -1 13 q0 23 13.5 27t26.5 4h38q32 4 72 20q114 46 115 46q24 6 38 6q26 0 38 -22q1 -2 23 -61z" />
<glyph unicode="&#xaa;" horiz-adv-x="582" d="M582 384q0 -43 -15.5 -91t-40.5 -87l-26 -41q-20 -34 -20 -66q0 -14 3 -34q8 -49 42 -62q39 -6 79 -13q-12 -28 -27.5 -41.5t-32.5 -13.5q-38 0 -87 58q-39 46 -62 94q-97 -46 -120 -55q-95 -39 -151 -39q-43 0 -66 20q-26 23 -26 74q0 146 162 263q131 94 300 133 q29 0 58.5 -34.5t29.5 -64.5zM560 395q-8 14 -27 19.5t-43 5.5q-16 0 -28.5 -1t-22.5 -2q-58 0 -124 -44q-33 -22 -107 -88q-40 -37 -71 -76q-47 -60 -47 -99q0 -38 41 -56q21 -9 47 -9q49 0 112 32q54 27 94 65q13 12 69 110q38 66 96 66q5 9 10 28.5t5 31.5t-4 17z" />
<glyph unicode="&#xad;" horiz-adv-x="648" d="M131 241l11 11q0 40 22 55q6 4 88 7t88 4l187 22l75 10q22 0 34.5 -9t12.5 -32q0 -8 -1 -13q-4 -28 -12.5 -38.5t-24.5 -10.5q-11 0 -58 18q-23 9 -37 9q-48 0 -201 -35q-70 -16 -117 -16q-22 0 -33 1t-34 6v11z" />
<glyph unicode="&#xb2;" horiz-adv-x="615" d="M274 21q-22 -3 -43 -13q-61 -28 -68 -30t-18 -2q-25 0 -40 9q-20 12 -20 34q0 3 3.5 17t35.5 26q7 2 55 14.5t135 62.5l84 48q43 25 92 75q59 61 59 100q0 40 -22 56.5t-58 16.5q-12 0 -25 -1.5t-27 -5.5q-54 -27 -93.5 -44t-61.5 -17q-27 0 -27 28q0 12 7.5 36.5 t65.5 42.5q10 3 87 20q20 5 44.5 8.5t45.5 3.5q41 0 72.5 -15.5t46.5 -51.5q12 -30 12 -60q0 -81 -84 -162q-65 -62 -159 -108q55 -34 76 -53q38 -34 45 -77q-78 24 -118 34.5t-69 10.5q-16 0 -33 -3z" />
<glyph unicode="&#xb3;" horiz-adv-x="527" d="M230 494q59 -5 100 -11.5t98 -21.5q35 -8 64.5 -31.5t34.5 -56.5q1 -4 1 -12q0 -36 -38 -73l-62 -58q41 -25 60.5 -55.5t19.5 -63.5q0 -54 -47.5 -95.5t-120.5 -47.5q-6 -1 -13 -1h-11q-25 0 -66.5 5t-71.5 8t-56.5 21t-26.5 39q0 31 58 47q7 -30 37 -44t74 -14 q33 0 64.5 7t55.5 18q45 23 45 53q0 26 -32 47t-68 21q-9 0 -21.5 -1.5t-27.5 -2.5q-16 0 -23.5 3.5t-15.5 11.5q-15 16 -15 33q0 15 10.5 26.5t26.5 17.5q71 23 102 35q55 21 85 64q-32 29 -62.5 39t-67.5 10q-20 0 -60 -2.5t-52 -2.5q-31 0 -44.5 8.5t-13.5 24.5 q0 18 20 38t49 28z" />
<glyph unicode="&#xb6;" horiz-adv-x="516" d="M263 439l-129 32q-70 27 -70 100q0 14 1 22q9 75 86 106q59 24 167 24q48 0 94.5 -3t103.5 -6v-55h-16q-8 0 -14 1q-8 0 -14 -1v-735h-55v735h-77v-735h-55v515h-22z" />
<glyph unicode="&#xb7;" horiz-adv-x="494" d="M296 329q-5 -22 -18.5 -32.5t-31.5 -10.5q-24 0 -42.5 15.5t-18.5 39.5q0 15 12 32q16 23 43 23q22 0 39.5 -15.5t17.5 -38.5q0 -8 -1 -13z" />
<glyph unicode="&#xb9;" horiz-adv-x="197" d="M109 208v99q0 26 5.5 72t5.5 60q0 7 -7.5 20t-3.5 24q3 6 17 16t16 17q2 5 23 -2q7 -2 21 -9q6 -6 8.5 -16t2.5 -39q0 -45 -10 -188q-5 -72 -5 -113q0 -82 15 -149l-30 -7q-26 -6 -44 -6q-15 0 -36 3q0 31 15 135q7 49 7 83z" />
<glyph unicode="&#xba;" horiz-adv-x="725" d="M714 285q16 -38 16 -71q0 -106 -159 -167q-123 -47 -253 -47q-95 0 -146 12q-83 19 -118 75q-7 12 -10.5 23t-3.5 25q0 42 41 86q32 34 83 64q79 47 96 56q60 32 97.5 42t69 14.5t67.5 4.5q77 0 129 -24q63 -29 91 -93zM131 109q15 -17 57 -35q36 -15 62 -19t50 -4 q39 0 61 3t122 22q58 12 114 50q69 46 69 96q0 16 -6.5 31t-22.5 32q-22 24 -58.5 34.5t-79.5 10.5q-48 0 -93 -12q-87 -22 -165 -68q-90 -53 -132 -119z" />
<glyph unicode="&#xc0;" horiz-adv-x="846" d="M941 965q-51 6 -102.5 54.5t-51.5 95.5q0 22 12.5 39.5t42.5 30.5q49 -27 76 -96q23 -59 23 -124zM131 230q-3 10 4 30q3 9 7 14q11 13 21.5 17.5t24.5 4.5h20q53 0 94 93.5t82 93.5q16 0 27 -4q9 -5 19 -9q7 0 31 24l88 91l80 85l85 88l90 96q55 51 109 51q17 0 32 -4 q-16 -93 -58 -195q-26 -62 -87 -185q-65 -130 -86 -181q-32 -76 -43 -110q-23 -70 -23 -121q0 -34 22 -63q65 -86 66 -89q-16 -2 -24 -2q-49 0 -85.5 33.5t-44.5 87.5q-1 5 -1 17q0 22 6 48q16 69 16 80q0 25 -14.5 39t-50.5 14q-21 0 -44 1l-46 2q-40 0 -67.5 -4.5 t-51.5 -20.5q-42 -26 -80 -86q-23 -36 -52 -101q-17 -38 -41 -48q-17 -7 -69 -7q6 48 62 120q37 48 48 67l-66 22v11zM813 791q-31 -16 -83 -69l-71 -74l-97 -96q-58 -59 -95 -101q-48 -55 -83 -111q24 -5 60 -15q75 -20 110 -20q39 0 63 14q29 17 42 54q18 50 70 141 q59 103 79 147q38 85 38 152zM395 461q-19 -1 -19 -16q0 -7 4 -17t4 -11l19 17q5 5 5 10q-2 12 -2 28zM362 417v-11l11 -11l11 11v11l-11 11z" />
<glyph unicode="&#xc2;" horiz-adv-x="846" d="M1109 1285q-48 -17 -108 -78q-82 -84 -101 -98q-13 -10 -70 -81q-42 -53 -77 -53q-18 0 -40 13q-28 17 -28 36q0 26 59 61l79 46l286 242l42 46q29 28 48 28q12 0 20 -11.5t11 -40.5q10 -89 16 -177t6 -175q0 -29 -16.5 -53.5t-37.5 -24.5q-20 0 -34 23q-10 16 -10 37 q0 12 3 27q7 36 7 46q0 69 -6 114t-27 95zM131 230q-3 10 4 30q3 9 7 14q11 13 21.5 17.5t24.5 4.5h20q53 0 94 93.5t82 93.5q16 0 27 -4q9 -5 19 -9q7 0 31 24l88 91l80 85l85 88l90 96q55 51 109 51q17 0 32 -4q-16 -93 -58 -195q-26 -62 -87 -185q-65 -130 -86 -181 q-32 -76 -43 -110q-23 -70 -23 -121q0 -34 22 -63q65 -86 66 -89q-16 -2 -24 -2q-49 0 -85.5 33.5t-44.5 87.5q-1 5 -1 17q0 22 6 48q16 69 16 80q0 25 -14.5 39t-50.5 14q-21 0 -44 1l-46 2q-40 0 -67.5 -4.5t-51.5 -20.5q-42 -26 -80 -86q-23 -36 -52 -101 q-17 -38 -41 -48q-17 -7 -69 -7q6 48 62 120q37 48 48 67l-66 22v11zM813 791q-31 -16 -83 -69l-71 -74l-97 -96q-58 -59 -95 -101q-48 -55 -83 -111q24 -5 60 -15q75 -20 110 -20q39 0 63 14q29 17 42 54q18 50 70 141q59 103 79 147q38 85 38 152zM395 461q-19 -1 -19 -16 q0 -7 4 -17t4 -11l19 17q5 5 5 10q-2 12 -2 28zM362 417v-11l11 -11l11 11v11l-11 11z" />
<glyph unicode="&#xc3;" horiz-adv-x="846" d="M1039 1095q12 -30 38.5 -46.5t60.5 -16.5q20 0 44 8l67 62q26 23 41 23q20 0 24 -41q6 -53 -65 -88q-64 -31 -146 -31q-38 0 -65.5 7.5t-42.5 23.5q-8 10 -18 43.5t-24 43t-28 9.5q-12 0 -30 -7q-27 -11 -32 -12q-56 -27 -90 -42t-53 -15q-37 0 -44 46q-1 5 -1 13 q0 23 13.5 27t26.5 4h38q32 4 72 20q114 46 115 46q24 6 38 6q26 0 38 -22q1 -2 23 -61zM131 230q-3 10 4 30q3 9 7 14q11 13 21.5 17.5t24.5 4.5h20q53 0 94 93.5t82 93.5q16 0 27 -4q9 -5 19 -9q7 0 31 24l88 91l80 85l85 88l90 96q55 51 109 51q17 0 32 -4 q-16 -93 -58 -195q-26 -62 -87 -185q-65 -130 -86 -181q-32 -76 -43 -110q-23 -70 -23 -121q0 -34 22 -63q65 -86 66 -89q-16 -2 -24 -2q-49 0 -85.5 33.5t-44.5 87.5q-1 5 -1 17q0 22 6 48q16 69 16 80q0 25 -14.5 39t-50.5 14q-21 0 -44 1l-46 2q-40 0 -67.5 -4.5 t-51.5 -20.5q-42 -26 -80 -86q-23 -36 -52 -101q-17 -38 -41 -48q-17 -7 -69 -7q6 48 62 120q37 48 48 67l-66 22v11zM813 791q-31 -16 -83 -69l-71 -74l-97 -96q-58 -59 -95 -101q-48 -55 -83 -111q24 -5 60 -15q75 -20 110 -20q39 0 63 14q29 17 42 54q18 50 70 141 q59 103 79 147q38 85 38 152zM395 461q-19 -1 -19 -16q0 -7 4 -17t4 -11l19 17q5 5 5 10q-2 12 -2 28zM362 417v-11l11 -11l11 11v11l-11 11z" />
<glyph unicode="&#xc8;" d="M742 879q-51 6 -102.5 54.5t-51.5 95.5q0 22 12.5 39.5t42.5 30.5q49 -27 76 -96q23 -59 23 -124zM626 10q-15 -4 -34 -4q-16 0 -44.5 2.5t-34.5 2.5q-13 0 -32 -2t-51 -4t-62 -2q-57 0 -105.5 7.5t-82.5 22.5q-43 19 -71 54q-21 27 -21 53t23 62l41 60q19 29 27 43 q16 26 19 49l5 47q5 15 38 27q51 19 91 72q35 46 51 101.5t67 86.5q60 37 187 48q13 1 22.5 1.5t16.5 0.5q65 0 162 -23l96 -23q-28 -13 -60 -18.5t-69 -5.5q-22 0 -68 3t-69 3h-23q-9 0 -30 -4q-78 -11 -144 -87q-27 -31 -98 -144q76 -10 118 -16q78 -12 91 -39 q-48 -20 -177 -33q-176 -18 -219 -165q-5 -20 -5 -33q0 -64 92 -92q60 -18 155 -18q19 0 68 6t75 6q34 0 54.5 -7t33.5 -27z" />
<glyph unicode="&#xca;" d="M910 1199q-48 -17 -108 -78q-82 -84 -101 -98q-13 -10 -70 -81q-42 -53 -77 -53q-18 0 -40 13q-28 17 -28 36q0 26 59 61l79 46l286 242l42 46q29 28 48 28q12 0 20 -11.5t11 -40.5q10 -89 16 -177t6 -175q0 -29 -16.5 -53.5t-37.5 -24.5q-20 0 -34 23q-10 16 -10 37 q0 12 3 27q7 36 7 46q0 69 -6 114t-27 95zM626 10q-15 -4 -34 -4q-16 0 -44.5 2.5t-34.5 2.5q-13 0 -32 -2t-51 -4t-62 -2q-57 0 -105.5 7.5t-82.5 22.5q-43 19 -71 54q-21 27 -21 53t23 62l41 60q19 29 27 43q16 26 19 49l5 47q5 15 38 27q51 19 91 72q35 46 51 101.5 t67 86.5q60 37 187 48q13 1 22.5 1.5t16.5 0.5q65 0 162 -23l96 -23q-28 -13 -60 -18.5t-69 -5.5q-22 0 -68 3t-69 3h-23q-9 0 -30 -4q-78 -11 -144 -87q-27 -31 -98 -144q76 -10 118 -16q78 -12 91 -39q-48 -20 -177 -33q-176 -18 -219 -165q-5 -20 -5 -33q0 -64 92 -92 q60 -18 155 -18q19 0 68 6t75 6q34 0 54.5 -7t33.5 -27z" />
<glyph unicode="&#xcc;" horiz-adv-x="813" d="M951 879q-51 6 -102.5 54.5t-51.5 95.5q0 22 12.5 39.5t42.5 30.5q49 -27 76 -96q23 -59 23 -124zM956 670q-44 -13 -105 -17.5t-126 -4.5q-36 0 -49.5 -6.5t-16 -33t-4.5 -43t-18 -49.5l-220 -451q42 -9 84 -9q37 0 85.5 6.5t94.5 13.5l66 18q26 8 41 8q17 0 27 -8.5 t10 -28.5q0 -7 -1 -11q-4 -28 -26.5 -38t-59.5 -10q-16 0 -47 2t-42 2h-12q-66 -7 -134.5 -17t-141.5 -23l-142 -24l-86 -18q-22 0 -34 11t-12 40q0 40 60 55q36 9 94 9q65 0 115 57q33 38 71 116l77 160q38 81 56 151l12 44q4 15 4 25q0 11 -7.5 17t-24.5 6h-14 q-4 0 -32 -5t-56 -18l-58 -25q-18 -7 -30 -9.5t-29 -2.5h-24q-13 0 -27 1q0 48 2 57q8 35 52.5 40.5t87.5 12.5l67 11l396 44q5 -3 47 -12q21 -4 30 -43z" />
<glyph unicode="&#xce;" horiz-adv-x="813" d="M1119 1199q-48 -17 -108 -78q-82 -84 -101 -98q-13 -10 -70 -81q-42 -53 -77 -53q-18 0 -40 13q-28 17 -28 36q0 26 59 61l79 46l286 242l42 46q29 28 48 28q12 0 20 -11.5t11 -40.5q10 -89 16 -177t6 -175q0 -29 -16.5 -53.5t-37.5 -24.5q-20 0 -34 23q-10 16 -10 37 q0 12 3 27q7 36 7 46q0 69 -6 114t-27 95zM956 670q-44 -13 -105 -17.5t-126 -4.5q-36 0 -49.5 -6.5t-16 -33t-4.5 -43t-18 -49.5l-220 -451q42 -9 84 -9q37 0 85.5 6.5t94.5 13.5l66 18q26 8 41 8q17 0 27 -8.5t10 -28.5q0 -7 -1 -11q-4 -28 -26.5 -38t-59.5 -10 q-16 0 -47 2t-42 2h-12q-66 -7 -134.5 -17t-141.5 -23l-142 -24l-86 -18q-22 0 -34 11t-12 40q0 40 60 55q36 9 94 9q65 0 115 57q33 38 71 116l77 160q38 81 56 151l12 44q4 15 4 25q0 11 -7.5 17t-24.5 6h-14q-4 0 -32 -5t-56 -18l-58 -25q-18 -7 -30 -9.5t-29 -2.5h-24 q-13 0 -27 1q0 48 2 57q8 35 52.5 40.5t87.5 12.5l67 11l396 44q5 -3 47 -12q21 -4 30 -43z" />
<glyph unicode="&#xd1;" horiz-adv-x="846" d="M1136 1025q12 -30 38.5 -46.5t60.5 -16.5q20 0 44 8l67 62q26 23 41 23q20 0 24 -41q6 -53 -65 -88q-64 -31 -146 -31q-38 0 -65.5 7.5t-42.5 23.5q-8 10 -18 43.5t-24 43t-28 9.5q-12 0 -30 -7q-27 -11 -32 -12q-56 -27 -90 -42t-53 -15q-37 0 -44 46q-1 5 -1 13 q0 23 13.5 27t26.5 4h38q32 4 72 20q114 46 115 46q24 6 38 6q26 0 38 -22q1 -2 23 -61zM604 230l55 99q20 53 55 115q14 26 67 113q46 76 65 113q34 68 65 104q46 55 99 61q2 -9 6 -23t4 -20q0 -14 -31 -34q-39 -25 -75 -67.5t-57 -86.5q-35 -65 -48 -92q-23 -46 -28.5 -79 t-23 -47.5t-21.5 -23.5l-60 -126q-39 -86 -39 -138q-5 -61 -33 -80q-10 -7 -88 -28l-41 187q-25 104 -58 185q-43 -38 -93 -104q-138 -181 -149 -193q-7 -7 -25 -15.5t-31 -8.5q-16 0 -24 7.5t-8 27.5q0 14 17 30l27 25q93 117 176 242q18 27 53 123q17 46 35 75 q56 -31 90 -106q14 -32 45 -144q25 -92 52 -135zM725 351v-11l11 -11l11 11v11l-11 11z" />
<glyph unicode="&#xd2;" horiz-adv-x="956" d="M722 879q-51 6 -102.5 54.5t-51.5 95.5q0 22 12.5 39.5t42.5 30.5q49 -27 76 -96q23 -59 23 -124zM890 637q0 -3 31 -126q12 -48 12 -79q0 -32 -10 -59q-57 -150 -162 -256q-125 -127 -267 -127h-65q-93 0 -149 9q-85 14 -128 49q-54 45 -54 127q0 110 71 220 q58 90 160 176q62 52 101 80q31 23 64 41l132 110q31 17 68 17q70 0 128.5 -57t67.5 -125zM373 494q-68 -42 -128 -117q-70 -87 -70 -152v-7q0 -61 71 -106q54 -34 127 -47q23 -4 51 -4q104 0 199.5 64.5t145.5 159.5q32 63 45 138q10 60 10 148q0 33 -5.5 49t-17.5 28 t-22 15t-29 3q-8 0 -16 0.5t-20 3.5q-24 7 -49 7q-67 0 -151 -68z" />
<glyph unicode="&#xd4;" horiz-adv-x="956" d="M890 1199q-48 -17 -108 -78q-82 -84 -101 -98q-13 -10 -70 -81q-42 -53 -77 -53q-18 0 -40 13q-28 17 -28 36q0 26 59 61l79 46l286 242l42 46q29 28 48 28q12 0 20 -11.5t11 -40.5q10 -89 16 -177t6 -175q0 -29 -16.5 -53.5t-37.5 -24.5q-20 0 -34 23q-10 16 -10 37 q0 12 3 27q7 36 7 46q0 69 -6 114t-27 95zM890 637q0 -3 31 -126q12 -48 12 -79q0 -32 -10 -59q-57 -150 -162 -256q-125 -127 -267 -127h-65q-93 0 -149 9q-85 14 -128 49q-54 45 -54 127q0 110 71 220q58 90 160 176q62 52 101 80q31 23 64 41l132 110q31 17 68 17 q70 0 128.5 -57t67.5 -125zM373 494q-68 -42 -128 -117q-70 -87 -70 -152v-7q0 -61 71 -106q54 -34 127 -47q23 -4 51 -4q104 0 199.5 64.5t145.5 159.5q32 63 45 138q10 60 10 148q0 33 -5.5 49t-17.5 28t-22 15t-29 3q-8 0 -16 0.5t-20 3.5q-24 7 -49 7q-67 0 -151 -68z " />
<glyph unicode="&#xd5;" horiz-adv-x="956" d="M820 1009q12 -30 38.5 -46.5t60.5 -16.5q20 0 44 8l67 62q26 23 41 23q20 0 24 -41q6 -53 -65 -88q-64 -31 -146 -31q-38 0 -65.5 7.5t-42.5 23.5q-8 10 -18 43.5t-24 43t-28 9.5q-12 0 -30 -7q-27 -11 -32 -12q-56 -27 -90 -42t-53 -15q-37 0 -44 46q-1 5 -1 13 q0 23 13.5 27t26.5 4h38q32 4 72 20q114 46 115 46q24 6 38 6q26 0 38 -22q1 -2 23 -61zM890 637q0 -3 31 -126q12 -48 12 -79q0 -32 -10 -59q-57 -150 -162 -256q-125 -127 -267 -127h-65q-93 0 -149 9q-85 14 -128 49q-54 45 -54 127q0 110 71 220q58 90 160 176 q62 52 101 80q31 23 64 41l132 110q31 17 68 17q70 0 128.5 -57t67.5 -125zM373 494q-68 -42 -128 -117q-70 -87 -70 -152v-7q0 -61 71 -106q54 -34 127 -47q23 -4 51 -4q104 0 199.5 64.5t145.5 159.5q32 63 45 138q10 60 10 148q0 33 -5.5 49t-17.5 28t-22 15t-29 3 q-8 0 -16 0.5t-20 3.5q-24 7 -49 7q-67 0 -151 -68z" />
<glyph unicode="&#xd7;" horiz-adv-x="0" />
<glyph unicode="&#x141;" horiz-adv-x="0" />
<glyph unicode="&#xfd;" horiz-adv-x="0" />
<glyph unicode="&#xd9;" horiz-adv-x="934" d="M1095 879q-51 6 -102.5 54.5t-51.5 95.5q0 22 12.5 39.5t42.5 30.5q49 -27 76 -96q23 -59 23 -124zM560 670q3 -20 -13 -36l-31 -30l-35 -42q-41 -49 -64 -79l-198 -231l-31 -50q-35 -55 -35 -93q0 -31 16.5 -43t46.5 -12q24 0 44 4l36 7q104 21 201 93q77 57 161 159 q50 61 133 177q68 117 112 180q81 117 151 117q2 -14 2 -21q0 -51 -57 -118q-75 -88 -87 -114q-21 -44 -60 -89l-74 -86q-42 -50 -66 -91l-47 -82q-28 -53 -28 -92v-12q0 -60 85 -75q54 -9 69 -21l-43 -11q-50 -14 -75 -14q-31 0 -57.5 14t-36 45.5t-9.5 74.5v27q0 14 1 27 q-41 -17 -137 -72q-142 -81 -237 -81q-56 0 -76 9q-34 15 -34 67q0 45 28 97q12 22 104 145q23 30 124 135q45 47 74 85q3 4 45 69q49 76 98 85v-22z" />
<glyph unicode="&#xdb;" horiz-adv-x="934" d="M1263 1199q-48 -17 -108 -78q-82 -84 -101 -98q-13 -10 -70 -81q-42 -53 -77 -53q-18 0 -40 13q-28 17 -28 36q0 26 59 61l79 46l286 242l42 46q29 28 48 28q12 0 20 -11.5t11 -40.5q10 -89 16 -177t6 -175q0 -29 -16.5 -53.5t-37.5 -24.5q-20 0 -34 23q-10 16 -10 37 q0 12 3 27q7 36 7 46q0 69 -6 114t-27 95zM560 670q3 -20 -13 -36l-31 -30l-35 -42q-41 -49 -64 -79l-198 -231l-31 -50q-35 -55 -35 -93q0 -31 16.5 -43t46.5 -12q24 0 44 4l36 7q104 21 201 93q77 57 161 159q50 61 133 177q68 117 112 180q81 117 151 117q2 -14 2 -21 q0 -51 -57 -118q-75 -88 -87 -114q-21 -44 -60 -89l-74 -86q-42 -50 -66 -91l-47 -82q-28 -53 -28 -92v-12q0 -60 85 -75q54 -9 69 -21l-43 -11q-50 -14 -75 -14q-31 0 -57.5 14t-36 45.5t-9.5 74.5v27q0 14 1 27q-41 -17 -137 -72q-142 -81 -237 -81q-56 0 -76 9 q-34 15 -34 67q0 45 28 97q12 22 104 145q23 30 124 135q45 47 74 85q3 4 45 69q49 76 98 85v-22z" />
<glyph unicode="&#xe0;" horiz-adv-x="582" d="M522 543q-51 6 -102.5 54.5t-51.5 95.5q0 22 12.5 39.5t42.5 30.5q49 -27 76 -96q23 -59 23 -124zM582 384q0 -43 -15.5 -91t-40.5 -87l-26 -41q-20 -34 -20 -66q0 -14 3 -34q8 -49 42 -62q39 -6 79 -13q-12 -28 -27.5 -41.5t-32.5 -13.5q-38 0 -87 58q-39 46 -62 94 q-97 -46 -120 -55q-95 -39 -151 -39q-43 0 -66 20q-26 23 -26 74q0 146 162 263q131 94 300 133q29 0 58.5 -34.5t29.5 -64.5zM560 395q-8 14 -27 19.5t-43 5.5q-16 0 -28.5 -1t-22.5 -2q-58 0 -124 -44q-33 -22 -107 -88q-40 -37 -71 -76q-47 -60 -47 -99q0 -38 41 -56 q21 -9 47 -9q49 0 112 32q54 27 94 65q13 12 69 110q38 66 96 66q5 9 10 28.5t5 31.5t-4 17z" />
<glyph unicode="&#xe2;" horiz-adv-x="582" d="M690 863q-48 -17 -108 -78q-82 -84 -101 -98q-13 -10 -70 -81q-42 -53 -77 -53q-18 0 -40 13q-28 17 -28 36q0 26 59 61l79 46l286 242l42 46q29 28 48 28q12 0 20 -11.5t11 -40.5q10 -89 16 -177t6 -175q0 -29 -16.5 -53.5t-37.5 -24.5q-20 0 -34 23q-10 16 -10 37 q0 12 3 27q7 36 7 46q0 69 -6 114t-27 95zM582 384q0 -43 -15.5 -91t-40.5 -87l-26 -41q-20 -34 -20 -66q0 -14 3 -34q8 -49 42 -62q39 -6 79 -13q-12 -28 -27.5 -41.5t-32.5 -13.5q-38 0 -87 58q-39 46 -62 94q-97 -46 -120 -55q-95 -39 -151 -39q-43 0 -66 20 q-26 23 -26 74q0 146 162 263q131 94 300 133q29 0 58.5 -34.5t29.5 -64.5zM560 395q-8 14 -27 19.5t-43 5.5q-16 0 -28.5 -1t-22.5 -2q-58 0 -124 -44q-33 -22 -107 -88q-40 -37 -71 -76q-47 -60 -47 -99q0 -38 41 -56q21 -9 47 -9q49 0 112 32q54 27 94 65q13 12 69 110 q38 66 96 66q5 9 10 28.5t5 31.5t-4 17z" />
<glyph unicode="&#xe3;" horiz-adv-x="582" d="M620 673q12 -30 38.5 -46.5t60.5 -16.5q20 0 44 8l67 62q26 23 41 23q20 0 24 -41q6 -53 -65 -88q-64 -31 -146 -31q-38 0 -65.5 7.5t-42.5 23.5q-8 10 -18 43.5t-24 43t-28 9.5q-12 0 -30 -7q-27 -11 -32 -12q-56 -27 -90 -42t-53 -15q-37 0 -44 46q-1 5 -1 13 q0 23 13.5 27t26.5 4h38q32 4 72 20q114 46 115 46q24 6 38 6q26 0 38 -22q1 -2 23 -61zM582 384q0 -43 -15.5 -91t-40.5 -87l-26 -41q-20 -34 -20 -66q0 -14 3 -34q8 -49 42 -62q39 -6 79 -13q-12 -28 -27.5 -41.5t-32.5 -13.5q-38 0 -87 58q-39 46 -62 94 q-97 -46 -120 -55q-95 -39 -151 -39q-43 0 -66 20q-26 23 -26 74q0 146 162 263q131 94 300 133q29 0 58.5 -34.5t29.5 -64.5zM560 395q-8 14 -27 19.5t-43 5.5q-16 0 -28.5 -1t-22.5 -2q-58 0 -124 -44q-33 -22 -107 -88q-40 -37 -71 -76q-47 -60 -47 -99q0 -38 41 -56 q21 -9 47 -9q49 0 112 32q54 27 94 65q13 12 69 110q38 66 96 66q5 9 10 28.5t5 31.5t-4 17z" />
<glyph unicode="&#xe8;" horiz-adv-x="571" d="M401 466q-51 6 -102.5 54.5t-51.5 95.5q0 22 12.5 39.5t42.5 30.5q49 -27 76 -96q23 -59 23 -124zM472 384q25 -14 39 -38t14 -50q0 -41 -31 -66q-42 -33 -87.5 -47.5t-95.5 -14.5q-29 0 -61.5 5t-63.5 13q-12 3 -20 9t-10 6q-6 0 -25 -15q-33 -24 -33 -56q0 -47 55 -65 q39 -12 88 -12q29 0 70 5t69.5 8t90 6.5t100.5 3.5q-38 -42 -157 -56l-107 -10q-19 -2 -45.5 -3.5t-43.5 -1.5q-85 0 -133 20q-65 27 -65 91q0 10 2.5 30t26.5 56q9 14 49 61q47 55 127 92q51 23 148 51q3 -4 28 -8q62 -9 71 -14zM439 307q-3 4 -21 12.5t-28 10.5t-24 2 q-36 0 -80 -23l-45 -24q35 -55 94 -55q68 0 115 66z" />
<glyph unicode="&#xea;" horiz-adv-x="571" d="M569 786q-48 -17 -108 -78q-82 -84 -101 -98q-13 -10 -70 -81q-42 -53 -77 -53q-18 0 -40 13q-28 17 -28 36q0 26 59 61l79 46l286 242l42 46q29 28 48 28q12 0 20 -11.5t11 -40.5q10 -89 16 -177t6 -175q0 -29 -16.5 -53.5t-37.5 -24.5q-20 0 -34 23q-10 16 -10 37 q0 12 3 27q7 36 7 46q0 69 -6 114t-27 95zM472 384q25 -14 39 -38t14 -50q0 -41 -31 -66q-42 -33 -87.5 -47.5t-95.5 -14.5q-29 0 -61.5 5t-63.5 13q-12 3 -20 9t-10 6q-6 0 -25 -15q-33 -24 -33 -56q0 -47 55 -65q39 -12 88 -12q29 0 70 5t69.5 8t90 6.5t100.5 3.5 q-38 -42 -157 -56l-107 -10q-19 -2 -45.5 -3.5t-43.5 -1.5q-85 0 -133 20q-65 27 -65 91q0 10 2.5 30t26.5 56q9 14 49 61q47 55 127 92q51 23 148 51q3 -4 28 -8q62 -9 71 -14zM439 307q-3 4 -21 12.5t-28 10.5t-24 2q-36 0 -80 -23l-45 -24q35 -55 94 -55q68 0 115 66z " />
<glyph unicode="&#xec;" horiz-adv-x="307" d="M269 818q-51 6 -102.5 54.5t-51.5 95.5q0 22 12.5 39.5t42.5 30.5q49 -27 76 -96q23 -59 23 -124zM263 736l22 -44l14 -14q18 -14 19.5 -21.5t1.5 -10.5q0 -20 -17 -31t-40 -11q-27 0 -39 11.5t-12 30.5q0 21 12 57q16 46 17 55q1 -1 3 -2q15 -13 19 -20zM197 362 q13 -13 13 -32q0 -20 -12 -48l-23 -52q-6 -22 -21 -55q-19 -43 -23 -55q-18 -51 -30 -62q-17 -15 -69 -15q-2 19 -2 21q-4 24 -4 26q0 10 5 26.5t22 40.5t23 40l37 102q23 54 62 85z" />
<glyph unicode="&#xee;" horiz-adv-x="307" d="M437 1138q-48 -17 -108 -78q-82 -84 -101 -98q-13 -10 -70 -81q-42 -53 -77 -53q-18 0 -40 13q-28 17 -28 36q0 26 59 61l79 46l286 242l42 46q29 28 48 28q12 0 20 -11.5t11 -40.5q10 -89 16 -177t6 -175q0 -29 -16.5 -53.5t-37.5 -24.5q-20 0 -34 23q-10 16 -10 37 q0 12 3 27q7 36 7 46q0 69 -6 114t-27 95zM263 736l22 -44l14 -14q18 -14 19.5 -21.5t1.5 -10.5q0 -20 -17 -31t-40 -11q-27 0 -39 11.5t-12 30.5q0 21 12 57q16 46 17 55q1 -1 3 -2q15 -13 19 -20zM197 362q13 -13 13 -32q0 -20 -12 -48l-23 -52q-6 -22 -21 -55 q-19 -43 -23 -55q-18 -51 -30 -62q-17 -15 -69 -15q-2 19 -2 21q-4 24 -4 26q0 10 5 26.5t22 40.5t23 40l37 102q23 54 62 85z" />
<glyph unicode="&#xf1;" horiz-adv-x="604" d="M584 619q12 -30 38.5 -46.5t60.5 -16.5q20 0 44 8l67 62q26 23 41 23q20 0 24 -41q6 -53 -65 -88q-64 -31 -146 -31q-38 0 -65.5 7.5t-42.5 23.5q-8 10 -18 43.5t-24 43t-28 9.5q-12 0 -30 -7q-27 -11 -32 -12q-56 -27 -90 -42t-53 -15q-37 0 -44 46q-1 5 -1 13 q0 23 13.5 27t26.5 4h38q32 4 72 20q114 46 115 46q24 6 38 6q26 0 38 -22q1 -2 23 -61zM32 10l-11 11q-1 4 4.5 22.5t6.5 21.5q9 24 32 54q66 88 67 89l88 121q14 38 23 58q17 37 31.5 39.5t18.5 2.5h4q17 0 24 -8.5t7 -24.5q0 -18 -10 -45.5t-21 -54.5q7 3 110 57 q77 41 122 41q28 0 50.5 -15t36.5 -50q5 -10 8 -26t3 -27q0 -48 -47 -126q-33 -55 -41 -74l-22 -22q-2 -11 4 -21.5t6 -12.5q0 -9 -10 -20q-15 -16 -37 -16q-19 0 -34 10.5t-17 26.5q-5 38 42 97q63 78 68 90q10 23 10 44q0 27 -17.5 42.5t-44.5 15.5q-11 0 -25 -3 q-76 -18 -155 -92l-128 -132q-76 -71 -146 -83v10z" />
<glyph unicode="&#xf2;" horiz-adv-x="725" d="M522 462q-51 6 -102.5 54.5t-51.5 95.5q0 22 12.5 39.5t42.5 30.5q49 -27 76 -96q23 -59 23 -124zM714 285q16 -38 16 -71q0 -106 -159 -167q-123 -47 -253 -47q-95 0 -146 12q-83 19 -118 75q-7 12 -10.5 23t-3.5 25q0 42 41 86q32 34 83 64q79 47 96 56q60 32 97.5 42 t69 14.5t67.5 4.5q77 0 129 -24q63 -29 91 -93zM131 109q15 -17 57 -35q36 -15 62 -19t50 -4q39 0 61 3t122 22q58 12 114 50q69 46 69 96q0 16 -6.5 31t-22.5 32q-22 24 -58.5 34.5t-79.5 10.5q-48 0 -93 -12q-87 -22 -165 -68q-90 -53 -132 -119z" />
<glyph unicode="&#xf4;" horiz-adv-x="725" d="M690 782q-48 -17 -108 -78q-82 -84 -101 -98q-13 -10 -70 -81q-42 -53 -77 -53q-18 0 -40 13q-28 17 -28 36q0 26 59 61l79 46l286 242l42 46q29 28 48 28q12 0 20 -11.5t11 -40.5q10 -89 16 -177t6 -175q0 -29 -16.5 -53.5t-37.5 -24.5q-20 0 -34 23q-10 16 -10 37 q0 12 3 27q7 36 7 46q0 69 -6 114t-27 95zM714 285q16 -38 16 -71q0 -106 -159 -167q-123 -47 -253 -47q-95 0 -146 12q-83 19 -118 75q-7 12 -10.5 23t-3.5 25q0 42 41 86q32 34 83 64q79 47 96 56q60 32 97.5 42t69 14.5t67.5 4.5q77 0 129 -24q63 -29 91 -93zM131 109 q15 -17 57 -35q36 -15 62 -19t50 -4q39 0 61 3t122 22q58 12 114 50q69 46 69 96q0 16 -6.5 31t-22.5 32q-22 24 -58.5 34.5t-79.5 10.5q-48 0 -93 -12q-87 -22 -165 -68q-90 -53 -132 -119z" />
<glyph unicode="&#xf5;" horiz-adv-x="725" d="M620 592q12 -30 38.5 -46.5t60.5 -16.5q20 0 44 8l67 61q26 24 41 24q20 0 24 -41q6 -53 -65 -88q-64 -31 -146 -31q-38 0 -65.5 7.5t-42.5 23.5q-8 10 -18 43.5t-24 43t-28 9.5q-12 0 -30 -7q-27 -11 -32 -12q-56 -27 -90 -42t-53 -15q-37 0 -44 46q-1 5 -1 13 q0 23 13.5 27t26.5 4h38q32 4 72 20q114 46 115 46q24 6 38 6q26 0 38 -22q1 -2 23 -61zM714 285q16 -38 16 -71q0 -106 -159 -167q-123 -47 -253 -47q-95 0 -146 12q-83 19 -118 75q-7 12 -10.5 23t-3.5 25q0 42 41 86q32 34 83 64q79 47 96 56q60 32 97.5 42t69 14.5 t67.5 4.5q77 0 129 -24q63 -29 91 -93zM131 109q15 -17 57 -35q36 -15 62 -19t50 -4q39 0 61 3t122 22q58 12 114 50q69 46 69 96q0 16 -6.5 31t-22.5 32q-22 24 -58.5 34.5t-79.5 10.5q-48 0 -93 -12q-87 -22 -165 -68q-90 -53 -132 -119z" />
<glyph unicode="&#xf9;" horiz-adv-x="802" d="M802 555q-51 6 -102.5 54.5t-51.5 95.5q0 22 12.5 39.5t42.5 30.5q49 -27 76 -96q23 -59 23 -124zM131 54h22q12 -3 26 -3q32 0 79 18l71 29q107 37 190 102q89 69 140 162q35 64 49 84q39 54 72 48q18 -3 25 -11t7 -21q0 -18 -16 -47q-10 -18 -27 -42q-20 -28 -78 -93 q-89 -99 -109 -171q-6 -21 -6 -33q0 -25 21 -30q8 -2 26 -2q17 1 26 1q27 0 37.5 -5.5t16.5 -18.5q-12 -2 -52 -13t-63 -11q-13 0 -28 3q-27 6 -39 22q-15 20 -15 69v33q0 12 -1 18q-79 -49 -113 -68q-69 -38 -123 -57q-69 -24 -130 -24q-34 0 -63 6.5t-42 19.5t-13 32 q0 31 38 82l59 75q30 37 72 84l128 136q22 23 41.5 34.5t33.5 11.5q23 0 23 -23q0 -26 -31 -65t-95 -103q-72 -71 -96 -100q-49 -59 -74 -118z" />
<glyph unicode="&#xfb;" horiz-adv-x="802" d="M970 875q-48 -17 -108 -78q-82 -84 -101 -98q-13 -10 -70 -81q-42 -53 -77 -53q-18 0 -40 13q-28 17 -28 36q0 26 59 61l79 46l286 242l42 46q29 28 48 28q12 0 20 -11.5t11 -40.5q10 -89 16 -177t6 -175q0 -29 -16.5 -53.5t-37.5 -24.5q-20 0 -34 23q-10 16 -10 37 q0 12 3 27q7 36 7 46q0 69 -6 114t-27 95zM131 54h22q12 -3 26 -3q32 0 79 18l71 29q107 37 190 102q89 69 140 162q35 64 49 84q39 54 72 48q18 -3 25 -11t7 -21q0 -18 -16 -47q-10 -18 -27 -42q-20 -28 -78 -93q-89 -99 -109 -171q-6 -21 -6 -33q0 -25 21 -30q8 -2 26 -2 q17 1 26 1q27 0 37.5 -5.5t16.5 -18.5q-12 -2 -52 -13t-63 -11q-13 0 -28 3q-27 6 -39 22q-15 20 -15 69v33q0 12 -1 18q-79 -49 -113 -68q-69 -38 -123 -57q-69 -24 -130 -24q-34 0 -63 6.5t-42 19.5t-13 32q0 31 38 82l59 75q30 37 72 84l128 136q22 23 41.5 34.5 t33.5 11.5q23 0 23 -23q0 -26 -31 -65t-95 -103q-72 -71 -96 -100q-49 -59 -74 -118z" />
<glyph unicode="&#x152;" horiz-adv-x="1615" d="M1582 10q-15 -4 -34 -4q-16 0 -44.5 2.5t-34.5 2.5q-13 0 -32 -2t-51 -4t-62 -2q-57 0 -105.5 7.5t-82.5 22.5q-43 19 -71 54q-21 27 -21 53t23 62l41 60q19 29 27 43q16 26 19 49l5 47q5 15 38 27q51 19 91 72q35 46 51 101.5t67 86.5q60 37 187 48q13 1 22.5 1.5 t16.5 0.5q65 0 162 -23l96 -23q-28 -13 -60 -18.5t-69 -5.5q-22 0 -68 3t-69 3h-23q-9 0 -30 -4q-78 -11 -144 -87q-27 -31 -98 -144q76 -10 118 -16q78 -12 91 -39q-48 -20 -177 -33q-176 -18 -219 -165q-5 -20 -5 -33q0 -64 92 -92q60 -18 155 -18q19 0 68 6t75 6 q34 0 54.5 -7t33.5 -27zM890 637q0 -3 31 -126q12 -48 12 -79q0 -32 -10 -59q-57 -150 -162 -256q-125 -127 -267 -127h-65q-93 0 -149 9q-85 14 -128 49q-54 45 -54 127q0 110 71 220q58 90 160 176q62 52 101 80q31 23 64 41l132 110q31 17 68 17q70 0 128.5 -57 t67.5 -125zM373 494q-68 -42 -128 -117q-70 -87 -70 -152v-7q0 -61 71 -106q54 -34 127 -47q23 -4 51 -4q104 0 199.5 64.5t145.5 159.5q32 63 45 138q10 60 10 148q0 33 -5.5 49t-17.5 28t-22 15t-29 3q-8 0 -16 0.5t-20 3.5q-24 7 -49 7q-67 0 -151 -68z" />
<glyph unicode="&#x153;" horiz-adv-x="1296" d="M1197 384q25 -14 39 -38t14 -50q0 -41 -31 -66q-42 -33 -87.5 -47.5t-95.5 -14.5q-29 0 -61.5 5t-63.5 13q-12 3 -20 9t-10 6q-6 0 -25 -15q-33 -24 -33 -56q0 -47 55 -65q39 -12 88 -12q29 0 70 5t69.5 8t90 6.5t100.5 3.5q-38 -42 -157 -56l-107 -10q-19 -2 -45.5 -3.5 t-43.5 -1.5q-85 0 -133 20q-65 27 -65 91q0 10 2.5 30t26.5 56q9 14 49 61q47 55 127 92q51 23 148 51q3 -4 28 -8q62 -9 71 -14zM1164 307q-3 4 -21 12.5t-28 10.5t-24 2q-36 0 -80 -23l-45 -24q35 -55 94 -55q68 0 115 66zM714 285q16 -38 16 -71q0 -106 -159 -167 q-123 -47 -253 -47q-95 0 -146 12q-83 19 -118 75q-7 12 -10.5 23t-3.5 25q0 42 41 86q32 34 83 64q79 47 96 56q60 32 97.5 42t69 14.5t67.5 4.5q77 0 129 -24q63 -29 91 -93zM131 109q15 -17 57 -35q36 -15 62 -19t50 -4q39 0 61 3t122 22q58 12 114 50q69 46 69 96 q0 16 -6.5 31t-22.5 32q-22 24 -58.5 34.5t-79.5 10.5q-48 0 -93 -12q-87 -22 -165 -68q-90 -53 -132 -119z" />
<glyph unicode="&#x2c6;" horiz-adv-x="648" d="M505 582q-48 -17 -108 -78q-82 -84 -101 -98q-13 -10 -70 -81q-42 -53 -77 -53q-18 0 -40 13q-28 17 -28 36q0 26 59 61l79 46l286 242l42 46q29 28 48 28q12 0 20 -11.5t11 -40.5q10 -89 16 -177t6 -175q0 -29 -16.5 -53.5t-37.5 -24.5q-20 0 -34 23q-10 16 -10 37 q0 12 3 27q7 36 7 46q0 69 -6 114t-27 95z" />
<glyph unicode="&#x2dc;" horiz-adv-x="494" d="M126 190q12 -30 38.5 -46.5t60.5 -16.5q20 0 44 8l67 61q26 24 41 24q20 0 24 -41q6 -53 -65 -88q-64 -31 -146 -31q-38 0 -65.5 7.5t-42.5 23.5q-8 10 -18 43.5t-24 43t-28 9.5q-12 0 -30 -7q-27 -11 -32 -12q-56 -27 -90 -42t-53 -15q-37 0 -44 46q-1 5 -1 13 q0 23 13.5 27t26.5 4h38q32 4 72 20q114 46 115 46q24 6 38 6q26 0 38 -22q1 -2 23 -61z" />
<glyph unicode="&#x2013;" horiz-adv-x="560" d="M43 241l11 11q0 40 22 55q6 4 87.5 7t88.5 4l187 22l75 10q22 0 34.5 -9t12.5 -32q0 -8 -1 -13q-4 -28 -12.5 -38.5t-24.5 -10.5q-11 0 -58 18q-23 9 -37 9q-48 0 -201 -35q-70 -16 -117 -16q-22 0 -33 1t-34 6v11z" />
<glyph unicode="&#x2014;" horiz-adv-x="560" d="M43 241l11 11q0 40 22 55q6 4 87.5 7t88.5 4l187 22l75 10q22 0 34.5 -9t12.5 -32q0 -8 -1 -13q-4 -28 -12.5 -38.5t-24.5 -10.5q-11 0 -58 18q-23 9 -37 9q-48 0 -201 -35q-70 -16 -117 -16q-22 0 -33 1t-34 6v11z" />
<glyph unicode="&#x2018;" horiz-adv-x="439" d="M142 945q4 -28 -23 -59q-41 -47 -43 -51q-10 -20 -15.5 -39t-5.5 -47v-40q-1 -12 -1 -18v-10q-46 0 -66 19t-20 53q0 55 47 133q42 69 83 103q1 -1 24 -14q18 -10 20 -30z" />
<glyph unicode="&#x2019;" horiz-adv-x="384" d="M340 780q0 31 -11 55q-6 14 -45 57q-32 35 -32 64q0 22 11.5 33.5t29.5 11.5q27 0 47 -23q6 -8 13.5 -30.5t8.5 -24.5q32 -39 43.5 -57.5t11.5 -41.5q0 -42 -28 -63t-71 -25q5 7 10 15q12 23 12 29z" />
<glyph unicode="&#x201c;" horiz-adv-x="527" d="M120 890q-5 -44 -52 -116q-52 -80 -89 -71q-31 8 -31 32q0 31 60 92l79 74q6 -4 16 -7.5t17 -3.5zM65 703q15 46 75 106t101 70q0 -41 -16 -74q-1 -3 -72 -102q-16 -22 -28 -31t-27 -9q-7 0 -16 1.5t-28 5.5z" />
<glyph unicode="&#x201d;" horiz-adv-x="527" d="M362 747q-9 -3 -21 -10q-7 -4 -11 -4q-7 0 -23 25q-11 18 -20.5 46.5t-9.5 51.5q0 22 8 35t24 13q28 0 58.5 -36.5t30.5 -72.5q0 -16 -8.5 -28.5t-27.5 -19.5zM494 780q-13 9 -24.5 53.5t-11.5 77.5q0 15 3 23q13 31 37 31q20 0 39 -20t23 -44q1 -6 1 -12v-11 q0 -25 -8 -54l-15 -55h-3q-31 4 -41 11z" />
<glyph unicode="&#x2026;" horiz-adv-x="954" d="M943 32q-8 -14 -25.5 -15t-29.5 -7q-7 -3 -21.5 -14.5t-20.5 -11.5t-11.5 5.5t-13.5 24.5t-8 33q0 23 17.5 32.5t47.5 9.5q17 0 38 -3.5t38 -9.5q-1 -4 -1 -7q-6 -31 -10 -37zM625 32q-8 -14 -25.5 -15t-29.5 -7q-7 -3 -21.5 -14.5t-20.5 -11.5t-11.5 5.5t-13.5 24.5 t-8 33q0 23 17.5 32.5t47.5 9.5q17 0 38 -3.5t38 -9.5q-1 -4 -1 -7q-6 -31 -10 -37zM307 32q-8 -14 -25.5 -15t-29.5 -7q-7 -3 -21.5 -14.5t-20.5 -11.5t-11.5 5.5t-13.5 24.5t-8 33q0 23 17.5 32.5t47.5 9.5q17 0 38 -3.5t38 -9.5q-1 -4 -1 -7q-6 -31 -10 -37z" />
<glyph unicode="&#x2039;" horiz-adv-x="813" d="M87 285q0 16 19 32.5t36 22.5q8 2 19 0.5t12 -1.5q8 0 15.5 2t22 15.5t19.5 16.5q60 33 129 79l122 86l123 88q14 10 56 57q35 39 54 42q23 4 33.5 -5.5t10.5 -27.5q0 -15 -6 -30t-16 -25q-60 -60 -145 -121q-50 -36 -158.5 -105t-158.5 -104q26 -19 53 -28q13 -4 57 -16 q22 -6 38 -13l61 -31q45 -18 61 -27q38 -20 49 -39q7 -12 9.5 -25.5t2.5 -34.5q0 -10 -0.5 -19.5t-0.5 -19.5q-49 0 -90 36q-118 103 -130 107q-41 14 -46 16q-53 17 -85 17h-12q-20 0 -48 -17q-21 -13 -29 -16q-3 16 -5 24.5t-17 19.5q-8 6 -24 12t-31 10v22z" />
<glyph unicode="&#x203a;" horiz-adv-x="879" d="M637 593q93 -38 147.5 -52t94.5 -14q0 -61 -18 -96q-23 -44 -81 -69q-39 -16 -83 -45q-25 -17 -126 -98q-21 -17 -91.5 -63t-102.5 -72q-53 -42 -81 -84q-16 -24 -42 -24q-21 0 -46 14q-13 7 -18 19t-5 28v19q0 9 1 20q78 9 168 67q66 42 157 125l137 127q27 25 37 37 q18 22 18 38q0 20 -22 35q-29 21 -95 51q-42 19 -59 26q-103 46 -136 71q-41 32 -41 62q0 16 10.5 32t34.5 33z" />
<glyph unicode="&#x2122;" horiz-adv-x="1867" d="M1417 340q8 -2 28 13l27 20q21 12 50 41q39 38 49 47q49 44 98 95l97 103q58 61 101 99q15 13 28 20t27 7q17 0 31.5 -15t14.5 -33q0 -21 -19 -53q-26 -44 -27 -47q-24 -68 -59 -153q-99 -238 -105 -254q-20 -52 -32 -86q-17 -50 -23 -88t-33 -51q-15 -7 -66 -15 q-4 16 -4 36q0 48 31 115q47 102 50 111q8 26 73 168q48 105 48 173q-39 -19 -91 -75q-78 -83 -85 -90q-34 -30 -77 -63l-77 -58q-13 -10 -29 -35t-26 -31q-31 -19 -57 -19q-53 0 -53 74q0 101 -5 144.5t-17 86.5q-34 -49 -72 -124q-19 -37 -61 -130q-37 -80 -65 -131 q-42 -77 -68 -102q-41 -40 -108 -40q6 48 46 116q55 93 64 114l99 198q38 105 47 120q21 34 49.5 44t34 16t12 36t14.5 41q4 6 30 29q63 -56 77 -172l22 -202h11zM538 670q-63 0 -166 -28l-98 -27q-50 -26 -82.5 -41t-53.5 -15q-19 0 -31.5 10t-19.5 35q-3 12 -3 23 q0 27 20.5 41t47.5 14q8 0 14.5 -1.5t24.5 -3t36 -1.5q27 0 69 5q100 11 228 37l226 49q143 32 232 47l182 32q32 0 51 -8t19 -25q0 -13 -15 -33q-22 -28 -65 -43q-34 -12 -67 -12l22 44q-29 7 -66 7q-64 0 -188 -28q-84 -19 -112.5 -24t-30.5 -5q-16 -4 -31 -16 t-16.5 -54.5t-5.5 -55.5q-27 -94 -94 -206l-120 -191q-67 -112 -94 -206l-88 20q7 41 34 79l87 119q11 22 81 151q48 89 73 155q33 89 33 167l-6 -4q-18 -7 -27 -7z" />
<glyph unicode="&#xe000;" horiz-adv-x="510" d="M0 510h510v-510h-510v510z" />
<glyph unicode="&#xfb01;" horiz-adv-x="933" d="M889 736l22 -44l14 -14q18 -14 19.5 -21.5t1.5 -10.5q0 -20 -17 -31t-40 -11q-27 0 -39 11.5t-12 30.5q0 21 12 57q16 46 17 55q1 -1 3 -2q15 -13 19 -20zM823 362q13 -13 13 -32q0 -20 -12 -48l-23 -52q-6 -22 -21 -55q-19 -43 -23 -55q-18 -51 -30 -62q-17 -15 -69 -15 q-2 19 -2 21q-4 24 -4 26q0 10 5 26.5t22 40.5t23 40l37 102q23 54 62 85zM208 274h-22q-17 4 -61 -20q-25 -13 -40 -13h-10q-26 0 -40.5 10.5t-14.5 27.5q0 10 5 19.5t18 19.5q18 13 42.5 17.5t55.5 4.5h30q33 0 47 1.5t34 9.5q31 13 58 57l41 75q46 73 68 103q42 58 84 99 q50 48 100 72t109 24q51 0 89.5 -18.5t55.5 -59.5q7 -18 7 -39q0 -41 -25.5 -80t-58.5 -57q2 17 13.5 53t11.5 54q0 16 -5.5 30t-19.5 28t-32 20.5t-39 6.5q-19 0 -39 -4.5t-44 -11.5q-92 -30 -151 -136l-91 -183q92 -27 97 -29q46 -22 46 -70q-22 0 -70 12t-70 12 t-38.5 -7.5t-30.5 -27.5q-22 -30 -47 -86l-41 -90q-29 -56 -62 -81t-92 -38q0 23 2 39.5t8 31.5t17 32q15 22 18.5 30t13.5 22l29 41l55 88z" />
<glyph unicode="&#xfb02;" horiz-adv-x="1021" d="M208 274h-22q-17 4 -61 -20q-25 -13 -40 -13h-10q-26 0 -40.5 10.5t-14.5 27.5q0 10 5 19.5t18 19.5q18 13 42.5 17.5t55.5 4.5h30q33 0 47 1.5t34 9.5q31 13 58 57l41 75q46 73 68 103q42 58 84 99q50 48 100 72t109 24q51 0 89.5 -18.5t55.5 -59.5q7 -18 7 -39 q0 -41 -25.5 -80t-58.5 -57q2 17 13.5 53t11.5 54q0 16 -5.5 30t-19.5 28t-32 20.5t-39 6.5q-19 0 -39 -4.5t-44 -11.5q-92 -30 -151 -136l-91 -183q92 -27 97 -29q46 -22 46 -70q-22 0 -70 12t-70 12t-38.5 -7.5t-30.5 -27.5q-22 -30 -47 -86l-41 -90q-29 -56 -62 -81 t-92 -38q0 23 2 39.5t8 31.5t17 32q15 22 18.5 30t13.5 22l29 41l55 88zM1109 758q3 -9 3 -17q0 -14 -8 -30l-17 -30q-17 -39 -60 -101q-48 -69 -61 -97q-28 -58 -62 -119l-65 -119q-38 -73 -60 -125l-26 -76q-19 -44 -51 -44q-27 0 -38.5 7.5t-11.5 21.5q0 18 19 50l31 52 q29 56 73 125l79 123q44 72 68 126l30 65q34 74 47 111l21 70q13 33 45 51q6 5 24 -16t20 -28z" />
<glyph unicode="&#xfb03;" horiz-adv-x="1559" d="M1515 736l22 -44l14 -14q18 -14 19.5 -21.5t1.5 -10.5q0 -20 -17 -31t-40 -11q-27 0 -39 11.5t-12 30.5q0 21 12 57q16 46 17 55q1 -1 3 -2q15 -13 19 -20zM1449 362q13 -13 13 -32q0 -20 -12 -48l-23 -52q-6 -22 -21 -55q-19 -43 -23 -55q-18 -51 -30 -62 q-17 -15 -69 -15q-2 19 -2 21q-4 24 -4 26q0 10 5 26.5t22 40.5t23 40l37 102q23 54 62 85zM834 274h-22q-17 4 -61 -20q-25 -13 -40 -13h-10q-26 0 -40.5 10.5t-14.5 27.5q0 10 5 19.5t18 19.5q18 13 42.5 17.5t55.5 4.5h30q33 0 47 1.5t34 9.5q31 13 58 57l41 75 q46 73 68 103q42 58 84 99q50 48 100 72t109 24q51 0 89.5 -18.5t55.5 -59.5q7 -18 7 -39q0 -41 -25.5 -80t-58.5 -57q2 17 13.5 53t11.5 54q0 16 -5.5 30t-19.5 28t-32 20.5t-39 6.5q-19 0 -39 -4.5t-44 -11.5q-92 -30 -151 -136l-91 -183q92 -27 97 -29q46 -22 46 -70 q-22 0 -70 12t-70 12t-38.5 -7.5t-30.5 -27.5q-22 -30 -47 -86l-41 -90q-29 -56 -62 -81t-92 -38q0 23 2 39.5t8 31.5t17 32q15 22 18.5 30t13.5 22l29 41l55 88zM208 274h-22q-17 4 -61 -20q-25 -13 -40 -13h-10q-26 0 -40.5 10.5t-14.5 27.5q0 10 5 19.5t18 19.5 q18 13 42.5 17.5t55.5 4.5h30q33 0 47 1.5t34 9.5q31 13 58 57l41 75q46 73 68 103q42 58 84 99q50 48 100 72t109 24q51 0 89.5 -18.5t55.5 -59.5q7 -18 7 -39q0 -41 -25.5 -80t-58.5 -57q2 17 13.5 53t11.5 54q0 16 -5.5 30t-19.5 28t-32 20.5t-39 6.5q-19 0 -39 -4.5 t-44 -11.5q-92 -30 -151 -136l-91 -183q92 -27 97 -29q46 -22 46 -70q-22 0 -70 12t-70 12t-38.5 -7.5t-30.5 -27.5q-22 -30 -47 -86l-41 -90q-29 -56 -62 -81t-92 -38q0 23 2 39.5t8 31.5t17 32q15 22 18.5 30t13.5 22l29 41l55 88z" />
<glyph unicode="&#xfb04;" horiz-adv-x="1647" d="M1735 758q3 -9 3 -17q0 -14 -8 -30l-17 -30q-17 -39 -60 -101q-48 -69 -61 -97q-28 -58 -62 -119l-65 -119q-38 -73 -60 -125l-26 -76q-19 -44 -51 -44q-27 0 -38.5 7.5t-11.5 21.5q0 18 19 50l31 52q29 56 73 125l79 123q44 72 68 126l30 65q34 74 47 111l21 70 q13 33 45 51q6 5 24 -16t20 -28zM834 274h-22q-17 4 -61 -20q-25 -13 -40 -13h-10q-26 0 -40.5 10.5t-14.5 27.5q0 10 5 19.5t18 19.5q18 13 42.5 17.5t55.5 4.5h30q33 0 47 1.5t34 9.5q31 13 58 57l41 75q46 73 68 103q42 58 84 99q50 48 100 72t109 24q51 0 89.5 -18.5 t55.5 -59.5q7 -18 7 -39q0 -41 -25.5 -80t-58.5 -57q2 17 13.5 53t11.5 54q0 16 -5.5 30t-19.5 28t-32 20.5t-39 6.5q-19 0 -39 -4.5t-44 -11.5q-92 -30 -151 -136l-91 -183q92 -27 97 -29q46 -22 46 -70q-22 0 -70 12t-70 12t-38.5 -7.5t-30.5 -27.5q-22 -30 -47 -86 l-41 -90q-29 -56 -62 -81t-92 -38q0 23 2 39.5t8 31.5t17 32q15 22 18.5 30t13.5 22l29 41l55 88zM208 274h-22q-17 4 -61 -20q-25 -13 -40 -13h-10q-26 0 -40.5 10.5t-14.5 27.5q0 10 5 19.5t18 19.5q18 13 42.5 17.5t55.5 4.5h30q33 0 47 1.5t34 9.5q31 13 58 57l41 75 q46 73 68 103q42 58 84 99q50 48 100 72t109 24q51 0 89.5 -18.5t55.5 -59.5q7 -18 7 -39q0 -41 -25.5 -80t-58.5 -57q2 17 13.5 53t11.5 54q0 16 -5.5 30t-19.5 28t-32 20.5t-39 6.5q-19 0 -39 -4.5t-44 -11.5q-92 -30 -151 -136l-91 -183q92 -27 97 -29q46 -22 46 -70 q-22 0 -70 12t-70 12t-38.5 -7.5t-30.5 -27.5q-22 -30 -47 -86l-41 -90q-29 -56 -62 -81t-92 -38q0 23 2 39.5t8 31.5t17 32q15 22 18.5 30t13.5 22l29 41l55 88z" />
</font>
</defs>
</svg>
